<svg width="15" height="15" viewBox="0 0 15 15" fill="none" xmlns="http://www.w3.org/2000/svg">
<g clip-path="url(#clip0_29_10)">
<path d="M3.49712 1.54107C3.36994 1.32194 3.44517 1.04072 3.6643 0.913538C3.88343 0.786359 4.16466 0.860994 4.29183 1.08072L4.88175 2.10173C5.00893 2.32086 4.9337 2.60209 4.71457 2.72927C4.49544 2.85645 4.21421 2.78181 4.08704 2.56208L3.49712 1.54107ZM7.165 3.05528C8.30006 3.05528 9.32704 3.51503 10.071 4.259C10.8144 5.00296 11.2747 6.03054 11.2747 7.165C11.2747 8.30006 10.815 9.32704 10.071 10.071C9.32704 10.815 8.30006 11.2747 7.165 11.2747C6.02994 11.2747 5.00296 10.815 4.259 10.071C3.51563 9.32704 3.05528 8.30006 3.05528 7.165C3.05528 6.02994 3.51503 5.00296 4.259 4.259C5.00296 3.51563 6.03054 3.05528 7.165 3.05528ZM9.45004 4.87996C8.86549 4.29542 8.05764 3.93358 7.165 3.93358C6.27236 3.93358 5.46451 4.29542 4.87996 4.87996C4.29542 5.46451 3.93358 6.27236 3.93358 7.165C3.93358 8.05764 4.29542 8.86549 4.87996 9.45004C5.46451 10.0346 6.27236 10.3964 7.165 10.3964C8.05764 10.3964 8.86549 10.0346 9.45004 9.45004C10.0346 8.86549 10.3964 8.05764 10.3964 7.165C10.3964 6.27236 10.0346 5.46451 9.45004 4.87996ZM6.79958 0.460351C6.79958 0.205994 7.00558 0 7.25994 0C7.51429 0 7.72029 0.205994 7.72029 0.460351V1.63959C7.72029 1.89395 7.51429 2.09994 7.25994 2.09994C7.00558 2.09994 6.79958 1.89395 6.79958 1.63959V0.460351ZM10.2024 1.17745C10.3283 0.958319 10.6084 0.882489 10.8281 1.00847C11.0472 1.13446 11.1231 1.41449 10.9971 1.63422L10.4072 2.65523C10.2812 2.87436 10.0011 2.95019 9.78142 2.8242C9.56229 2.69822 9.48646 2.41819 9.61244 2.19846L10.2024 1.17745ZM12.7889 3.49712C13.0081 3.36994 13.2893 3.44517 13.4165 3.6643C13.5436 3.88343 13.469 4.16466 13.2493 4.29183L12.2283 4.88175C12.0091 5.00893 11.7279 4.9337 11.6007 4.71457C11.4736 4.49544 11.5482 4.21421 11.7679 4.08704L12.7889 3.49712ZM13.8696 6.79958C14.124 6.79958 14.33 7.00558 14.33 7.25994C14.33 7.51429 14.124 7.72029 13.8696 7.72029H12.6904C12.4361 7.72029 12.2301 7.51429 12.2301 7.25994C12.2301 7.00558 12.4361 6.79958 12.6904 6.79958H13.8696ZM13.1526 10.2024C13.3717 10.3283 13.4475 10.6084 13.3215 10.8281C13.1955 11.0472 12.9155 11.1231 12.6958 10.9971L11.6748 10.4072C11.4556 10.2812 11.3798 10.0011 11.5058 9.78142C11.6318 9.56229 11.9118 9.48646 12.1315 9.61244L13.1526 10.2024ZM10.8329 12.7889C10.9601 13.0081 10.8848 13.2893 10.6657 13.4165C10.4466 13.5436 10.1653 13.469 10.0382 13.2493L9.44825 12.2283C9.32107 12.0091 9.3963 11.7279 9.61543 11.6007C9.83456 11.4736 10.1158 11.5482 10.243 11.7679L10.8329 12.7889ZM7.53042 13.8696C7.53042 14.124 7.32442 14.33 7.07006 14.33C6.81571 14.33 6.60971 14.124 6.60971 13.8696V12.6904C6.60971 12.4361 6.81571 12.2301 7.07006 12.2301C7.32442 12.2301 7.53042 12.4361 7.53042 12.6904V13.8696ZM4.12764 13.1526C4.00165 13.3717 3.72162 13.4475 3.50189 13.3215C3.28276 13.1955 3.20693 12.9155 3.33292 12.6958L3.92284 11.6748C4.04882 11.4556 4.32885 11.3798 4.54858 11.5058C4.76771 11.6318 4.84354 11.9118 4.71756 12.1315L4.12764 13.1526ZM1.54107 10.8329C1.32194 10.9601 1.04072 10.8848 0.913538 10.6657C0.786359 10.4466 0.860994 10.1653 1.08072 10.0382L2.10173 9.44825C2.32086 9.32107 2.60209 9.3963 2.72927 9.61543C2.85645 9.83456 2.78181 10.1158 2.56208 10.243L1.54107 10.8329ZM0.460351 7.53042C0.205994 7.53042 0 7.32442 0 7.07006C0 6.81571 0.205994 6.60971 0.460351 6.60971H1.63959C1.89395 6.60971 2.09994 6.81571 2.09994 7.07006C2.09994 7.32442 1.89395 7.53042 1.63959 7.53042H0.460351ZM1.17745 4.12764C0.958319 4.00165 0.882489 3.72162 1.00847 3.50189C1.13446 3.28276 1.41449 3.20693 1.63422 3.33292L2.65523 3.92284C2.87436 4.04882 2.95019 4.32885 2.8242 4.54858C2.69822 4.76771 2.41819 4.84354 2.19846 4.71756L1.17745 4.12764Z" fill="white"/>
<path d="M10.5 7C10.5 8.933 8.933 10.5 7 10.5C5.067 10.5 3.5 8.933 3.5 7C3.5 5.067 5.067 3.5 7 3.5C8.933 3.5 10.5 5.067 10.5 7Z" fill="white"/>
</g>
<defs>
<clipPath id="clip0_29_10">
<rect width="14.33" height="14.33" fill="white"/>
</clipPath>
</defs>
</svg>
