<svg width="102" height="93" viewBox="0 0 102 93" fill="none" xmlns="http://www.w3.org/2000/svg">
<path d="M66.0058 62.7087C63.4028 64.6508 60.8222 66.5714 58.2926 68.4707C57.6001 68.9847 56.9289 69.4886 56.2679 69.9925H61.3363C62.9681 67.614 64.5254 65.1842 66.0058 62.7087ZM68.3457 58.6593C68.7761 57.9035 69.2698 57.0008 69.8359 55.9513C70.403 54.9129 70.9793 53.8317 71.578 52.7199C72.1656 51.6071 72.7429 50.5167 73.2886 49.4457C73.7657 48.5157 74.2275 47.5779 74.6737 46.6326C73.7038 47.8994 72.7067 49.1451 71.6831 50.3688C70.6729 51.5913 69.6048 52.7646 68.4824 53.8848C67.0544 55.3117 65.8059 56.2134 64.7145 56.6234C63.6231 57.0212 62.7633 57.0008 62.1237 56.55C61.4832 56.0981 61.1047 55.2587 60.9895 54.0204C60.8742 52.7821 61.116 51.2185 61.7341 49.3295C61.934 48.6899 62.1645 48.0392 62.4175 47.3782L57.6847 51.6071C55.0297 53.9786 52.6582 55.9411 50.5692 57.5047C47.956 59.4458 45.8467 60.0853 44.2412 59.4254C43.4864 59.0888 42.8989 58.4696 42.5001 57.5363C42.1012 56.6132 42.0798 55.3005 42.4684 53.591C42.7092 52.5934 43.0876 51.5867 43.6006 50.5688C44.1379 49.5264 44.7195 48.5075 45.3438 47.5149C45.987 46.4872 46.6765 45.4893 47.4103 44.5243C48.1447 43.5481 48.8689 42.6138 49.5829 41.7111C50.5805 40.5259 51.4087 39.4345 52.0696 38.437C52.7306 37.4404 53.109 36.7162 53.2029 36.2644C53.2977 35.8135 53.0356 35.6983 52.4164 35.9084C51.7973 36.1185 50.7059 36.8213 49.1423 38.0075C47.8622 38.9521 46.4872 40.0955 45.0184 41.4174C43.5446 42.7509 42.0859 44.1012 40.6427 45.4678C39.2672 46.7712 37.9168 48.1008 36.5923 49.4559C35.5354 50.5235 34.5033 51.6152 33.4966 52.7301C32.7826 53.1075 32.2889 53.181 32.0064 52.9402C31.7228 52.6985 31.5443 52.3313 31.4709 51.8387C31.3974 51.345 31.4291 50.8095 31.5443 50.2434C31.6596 49.6763 31.7646 49.2254 31.8595 48.8888C32.038 48.3125 32.2369 47.724 32.4358 47.1365L31.9013 47.6087C30.4271 48.9116 28.9333 50.1922 27.4205 51.45C25.8171 52.7894 24.1938 54.1046 22.551 55.3954C21.0274 56.5996 19.4628 57.7512 17.8601 58.848C16.3383 59.8446 14.9633 60.4219 13.7363 60.5902C12.498 60.7575 11.5535 60.527 10.8925 59.918C10.2316 59.2989 9.91638 58.3227 9.96942 56.9702C10.0214 55.6157 10.5671 53.9266 11.6065 51.8805C12.5206 49.9942 13.6435 48.2164 14.9541 46.5806C16.237 44.9885 17.5666 43.4348 18.9413 41.9213C18.7854 41.7813 18.6205 41.6519 18.4476 41.5337C18.2069 41.3654 17.9019 41.0298 17.5245 40.5045C16.7697 41.2603 16.1179 41.9325 15.5722 42.4986C14.9737 43.1205 14.3685 43.7359 13.7567 44.3448C13.5159 44.5865 13.2854 44.6916 13.0437 44.661C12.8101 44.6419 12.5875 44.5539 12.4041 44.408C12.2225 44.2742 12.0868 44.0875 12.0155 43.8735C11.9421 43.6634 11.9839 43.4635 12.1206 43.2646L16.4545 38.9306C15.7578 37.6603 15.2987 36.2735 15.1 34.8384C14.9113 33.442 15.1428 32.0569 15.814 30.683C16.6636 29.1611 17.7448 28.2166 19.0463 27.8392C20.3478 27.4618 21.4698 27.5455 22.4256 28.0912C23.3691 28.6369 23.9046 29.5906 24.0198 30.9655C24.1361 32.3405 23.4425 34.0194 21.9217 36.0135C21.7589 36.1842 21.6047 36.3629 21.4596 36.5489C21.2495 36.8111 21.0088 37.0834 20.7456 37.367L19.9592 38.2177C19.7836 38.4091 19.6051 38.5978 19.4237 38.7838C20.1795 39.8751 20.9772 40.7778 21.8064 41.4908C22.6347 42.2048 23.3803 42.7923 24.0412 43.2646C23.244 44.1303 22.4602 45.0083 21.6902 45.8982C20.7071 47.0284 19.7484 48.1795 18.8148 49.3509C17.852 50.5414 16.9144 51.7521 16.0027 52.9821C15.101 54.1887 14.387 55.2169 13.8729 56.0777C12.7815 57.7883 12.4449 58.795 12.8754 59.1C13.3058 59.4039 14.5553 58.848 16.6432 57.4313C18.1316 56.4057 19.5908 55.3383 21.019 54.2305C22.6185 52.9885 24.1964 51.7187 25.7518 50.4219C27.2697 49.1578 28.774 47.8773 30.2642 46.5806C31.4355 45.5713 32.5933 44.5464 33.7373 43.5063C34.1463 42.4353 34.5768 41.3337 35.0286 40.2117C36.3207 37.0466 37.7455 33.9373 39.2993 30.8921C40.6947 28.1432 42.2267 25.4249 43.874 22.7393H0V69.9609H53.057L53.875 69.3315C58.6598 65.7219 63.4837 62.1643 68.3457 58.6593Z" fill="black"/>
<path d="M51.1062 23.7364C49.5702 25.9181 48.0659 28.1218 46.5937 30.347C48.6816 28.8782 50.9287 27.2942 53.3522 25.5837C54.6566 24.6603 55.9507 23.7225 57.2343 22.7705H51.7987C51.5682 23.0969 51.3367 23.4111 51.1062 23.7364ZM102.001 22.7715H60.3198C60.026 23.002 59.7312 23.2224 59.4273 23.4529C56.8659 25.4048 54.2807 27.3253 51.6722 29.2138C48.968 31.1725 46.2538 33.1173 43.5296 35.0482C43.0043 35.857 42.4178 36.7903 41.7559 37.8613C41.0823 38.9473 40.4175 40.0387 39.7618 41.1355C38.5715 43.1358 37.4308 45.1652 36.3407 47.2218C38.2017 45.3598 40.0982 43.5337 42.0292 41.7444C43.9374 39.967 45.9297 38.2821 47.9992 36.6955C49.9933 35.1747 51.6937 34.3984 53.1206 34.3454C54.5486 34.3036 55.5135 34.9645 56.0378 36.3395C56.3744 37.4309 56.405 38.5957 56.1429 39.8238C55.8659 41.096 55.425 42.3269 54.8312 43.4856C54.2033 44.7055 53.4913 45.8803 52.7004 47.0015C51.8926 48.1337 51.1163 49.1628 50.3503 50.0543C49.7158 50.92 49.0649 51.7735 48.3981 52.6145C47.8103 53.3498 47.2539 54.1097 46.7304 54.8921C46.0164 55.8897 45.6074 56.6343 45.4809 57.128C45.3656 57.6206 45.4605 57.9144 45.7644 57.9776C46.0684 58.0511 46.5621 57.9042 47.223 57.5472C47.884 57.1902 48.6918 56.6557 49.6363 55.9519C50.7609 55.0919 51.8632 54.2032 52.9421 53.2867C54.1953 52.2288 55.4407 51.1619 56.6784 50.0859C57.9585 48.9741 59.2488 47.8297 60.5503 46.6761C61.715 45.6453 62.8694 44.6028 64.0131 43.5488C64.3848 42.7327 64.7732 41.9244 65.178 41.1243C65.7522 39.989 66.3436 38.8625 66.9517 37.745C67.4974 36.7485 67.9065 36.0355 68.2002 35.6153C69.1968 35.4684 69.9628 35.6051 70.5085 36.0029C71.0542 36.4027 71.4112 36.9484 71.5795 37.641C71.7467 38.3336 71.7365 39.0894 71.5478 39.9176C71.3754 40.7118 71.0628 41.4689 70.6247 42.1534C70.383 42.489 70.0678 42.9817 69.669 43.6426C69.2712 44.3046 68.8296 45.0492 68.3573 45.8785C67.885 46.7077 67.3812 47.589 66.8681 48.5121C66.3428 49.4352 65.8706 50.3277 65.4401 51.1773C64.7792 52.4574 64.3487 53.4132 64.16 54.0537C63.9713 54.6932 64.0029 55.039 64.2651 55.0808C64.5272 55.1237 64.9791 54.8819 65.6186 54.3362C66.2592 53.7905 67.0772 53.0245 68.0748 52.028C69.4487 50.6 70.9817 48.8477 72.6596 46.7699C74.4183 44.583 76.0916 42.3288 77.676 40.0125C77.9177 39.3515 78.2431 38.6059 78.6725 37.7767C79.1029 36.9484 79.5334 36.2977 79.9842 35.8254C80.4361 35.3531 80.8451 35.1644 81.2337 35.2583C81.6111 35.3531 81.8732 35.9723 82.0201 37.1055C81.8732 39.0465 81.4428 41.314 80.7084 43.8946C79.9746 46.4793 79.131 49.0316 78.1798 51.5445C80.1796 50.1133 82.1596 48.6545 84.1193 47.1688C85.893 45.8152 87.5923 44.5249 89.209 43.2969C89.7751 42.9603 90.2158 42.8032 90.5207 42.8032C90.8247 42.8032 91.045 42.9082 91.1603 43.1184C91.2766 43.3285 91.2867 43.5906 91.1919 43.9058C91.0782 44.2444 90.8839 44.5503 90.6258 44.7973C90.2484 45.1747 89.7435 45.6163 89.1356 46.109C88.5164 46.6027 87.677 47.231 86.606 47.998C85.535 48.7528 84.2141 49.7085 82.6178 50.8417C80.6898 52.2199 78.7593 53.5945 76.8263 54.9656C74.4548 60.3287 71.8518 65.3338 69.0295 70.0033H102.001V22.7715ZM91.046 57.7991C90.3841 58.3662 89.6915 58.6488 88.9775 58.6488C88.1696 58.6488 87.5291 58.3662 87.0579 57.7991C86.5856 57.233 86.3439 56.4976 86.3439 55.5959C86.3439 54.7871 86.6376 54.0741 87.2364 53.4652C87.8239 52.846 88.5266 52.5421 89.3345 52.5421C89.9954 52.5421 90.6146 52.846 91.1807 53.4652C91.7478 54.0843 92.0313 54.7983 92.0313 55.5949C92.0415 56.4976 91.707 57.232 91.046 57.7991ZM20.5584 34.6922C21.408 33.6946 21.8803 32.845 21.9864 32.132C22.0802 31.418 21.9649 30.9243 21.6294 30.6418C21.2928 30.3582 20.8317 30.3582 20.2442 30.6418C19.6455 30.9243 19.1212 31.5853 18.6489 32.6349C18.4072 33.202 18.2817 33.8527 18.2603 34.5871C18.2399 35.3215 18.344 36.0875 18.5755 36.8954C18.9578 36.5181 19.3253 36.1262 19.6771 35.7203C19.981 35.3633 20.2748 35.0268 20.5584 34.6922ZM59.7424 72.281C57.4658 75.4807 55.2198 78.3775 52.985 80.9591C50.7604 83.5397 48.65 85.65 46.6569 87.2871C44.6628 88.9232 43.0054 89.7423 41.6824 89.7423C40.3605 89.7423 39.6159 89.218 39.4792 88.1786C39.3324 87.3708 39.469 86.3834 39.8668 85.2298C40.2657 84.065 41.0847 82.8481 42.323 81.568C43.037 80.8122 44.1692 79.7524 45.7338 78.3989C47.2965 77.0444 49.1437 75.5327 51.2846 73.8436C52.9349 72.5455 54.5965 71.262 56.2694 69.9931H53.0584C49.4272 72.7951 46.4366 75.3032 44.107 77.5064C41.5988 79.8779 39.8148 81.9771 38.7754 83.8028C37.7371 85.6286 37.3801 87.3177 37.7055 88.8926C37.9472 90.1727 38.598 91.1488 39.6577 91.8098C40.7287 92.4707 42.019 92.8063 43.5296 92.8063C44.8097 92.8063 46.353 92.4391 48.1573 91.7047C49.9627 90.9703 51.9558 89.679 54.1284 87.8318V87.9063C59.0601 83.7294 63.342 78.8599 66.9619 73.2877C67.6657 72.2167 68.3471 71.1151 69.0193 70.0033H61.3377C60.8116 70.7665 60.2798 71.5257 59.7424 72.281Z" fill="black"/>
<path d="M56.5402 16.453C58.3577 14.1493 60.2547 11.9094 62.2277 9.73734C64.1269 7.64839 65.8997 5.9909 67.5582 4.76283C69.1218 3.5776 70.4345 2.92684 71.5045 2.81158C72.5755 2.6953 73.3303 2.92684 73.7811 3.52558C74.233 4.12329 74.3166 4.98417 74.0331 6.11636C73.7495 7.24957 73.0151 8.53069 71.8299 9.95766C70.5498 11.5213 68.9127 13.189 66.9186 14.973C64.8217 16.8368 62.6622 18.6289 60.4437 20.3463C59.3727 21.1755 58.3027 21.9834 57.2113 22.7912H60.2968C62.449 21.1225 64.4839 19.4864 66.3729 17.8595C68.3867 16.1489 70.3197 14.3453 72.1655 12.4546C73.9709 10.6492 75.0724 8.85504 75.4702 7.05068C75.8691 5.24529 75.7232 3.7459 75.0092 2.53822C74.2952 1.33157 73.0988 0.533938 71.4199 0.156541C69.7409 -0.220857 67.7377 0.0831012 65.407 1.07963C62.6999 2.31791 60.1183 3.97642 57.653 6.05414C55.1867 8.14207 52.8672 10.5136 50.6844 13.1686C48.4606 15.8828 46.4068 18.732 44.5349 21.6998C44.3044 22.067 44.0738 22.4342 43.8535 22.7912H51.7656C53.3088 20.6427 54.9014 18.5295 56.5402 16.453Z" fill="black"/>
</svg>
