<svg width="390" height="116" viewBox="0 0 390 116" fill="none" xmlns="http://www.w3.org/2000/svg">
<mask id="path-1-outside-1_0_1013" maskUnits="userSpaceOnUse" x="7" y="24" width="377" height="60" fill="black">
<rect fill="white" x="7" y="24" width="377" height="60"/>
<path d="M17.3016 33.2878V49.4443H29.8125V57.7296H17.3016V74.7146H33.0438V83H8.18774V25.0025H33.0438V33.2878H17.3016ZM68.933 25.0025H77.3841L67.8559 53.1727L78.0469 83H68.4359L60.9791 60.0495L53.4394 83H44.9055L55.0965 53.1727L45.5683 25.0025H55.0136L61.8905 46.3787L68.933 25.0025ZM104.286 25.0025C113.4 25.0025 117.874 30.0565 117.874 39.3361V46.8758C117.874 56.1554 113.4 61.2095 104.286 61.2095H99.9773V83H90.8634V25.0025H104.286ZM104.286 33.2878H99.9773V52.9241H104.286C107.186 52.9241 108.76 51.5985 108.76 47.4558V38.7562C108.76 34.6135 107.186 33.2878 104.286 33.2878ZM139.899 33.2878V49.4443H152.41V57.7296H139.899V74.7146H155.641V83H130.785V25.0025H155.641V33.2878H139.899ZM197.91 83H188.631C188.134 81.5086 187.802 80.5972 187.802 75.8746V66.7607C187.802 61.3752 185.979 59.3867 181.837 59.3867H178.688V83H169.574V25.0025H183.328C192.773 25.0025 196.833 29.3937 196.833 38.3419V42.8988C196.833 48.8643 194.928 52.7584 190.868 54.6641C195.425 56.5697 196.916 60.9609 196.916 67.0093V75.9574C196.916 78.7745 196.999 80.8458 197.91 83ZM183.079 33.2878H178.688V51.1014H182.251C185.648 51.1014 187.719 49.61 187.719 44.9702V39.2533C187.719 35.1106 186.311 33.2878 183.079 33.2878ZM211.195 83V25.0025H220.309V83H211.195ZM244.372 33.2878V49.4443H256.883V57.7296H244.372V74.7146H260.115V83H235.258V25.0025H260.115V33.2878H244.372ZM293.518 83L282.167 40.9932V83H273.965V25.0025H285.398L294.761 59.7181V25.0025H302.881V83H293.518ZM335.505 61.3752H344.122V69.0806C344.122 78.3602 339.482 83.6628 330.534 83.6628C321.585 83.6628 316.946 78.3602 316.946 69.0806V38.9219C316.946 29.6423 321.585 24.3396 330.534 24.3396C339.482 24.3396 344.122 29.6423 344.122 38.9219V44.5559H335.505V38.3419C335.505 34.1992 333.682 32.625 330.782 32.625C327.882 32.625 326.06 34.1992 326.06 38.3419V69.6606C326.06 73.8032 327.882 75.2946 330.782 75.2946C333.682 75.2946 335.505 73.8032 335.505 69.6606V61.3752ZM367.051 33.2878V49.4443H379.562V57.7296H367.051V74.7146H382.793V83H357.937V25.0025H382.793V33.2878H367.051Z"/>
</mask>
<path d="M17.3016 33.2878V49.4443H29.8125V57.7296H17.3016V74.7146H33.0438V83H8.18774V25.0025H33.0438V33.2878H17.3016ZM68.933 25.0025H77.3841L67.8559 53.1727L78.0469 83H68.4359L60.9791 60.0495L53.4394 83H44.9055L55.0965 53.1727L45.5683 25.0025H55.0136L61.8905 46.3787L68.933 25.0025ZM104.286 25.0025C113.4 25.0025 117.874 30.0565 117.874 39.3361V46.8758C117.874 56.1554 113.4 61.2095 104.286 61.2095H99.9773V83H90.8634V25.0025H104.286ZM104.286 33.2878H99.9773V52.9241H104.286C107.186 52.9241 108.76 51.5985 108.76 47.4558V38.7562C108.76 34.6135 107.186 33.2878 104.286 33.2878ZM139.899 33.2878V49.4443H152.41V57.7296H139.899V74.7146H155.641V83H130.785V25.0025H155.641V33.2878H139.899ZM197.91 83H188.631C188.134 81.5086 187.802 80.5972 187.802 75.8746V66.7607C187.802 61.3752 185.979 59.3867 181.837 59.3867H178.688V83H169.574V25.0025H183.328C192.773 25.0025 196.833 29.3937 196.833 38.3419V42.8988C196.833 48.8643 194.928 52.7584 190.868 54.6641C195.425 56.5697 196.916 60.9609 196.916 67.0093V75.9574C196.916 78.7745 196.999 80.8458 197.91 83ZM183.079 33.2878H178.688V51.1014H182.251C185.648 51.1014 187.719 49.61 187.719 44.9702V39.2533C187.719 35.1106 186.311 33.2878 183.079 33.2878ZM211.195 83V25.0025H220.309V83H211.195ZM244.372 33.2878V49.4443H256.883V57.7296H244.372V74.7146H260.115V83H235.258V25.0025H260.115V33.2878H244.372ZM293.518 83L282.167 40.9932V83H273.965V25.0025H285.398L294.761 59.7181V25.0025H302.881V83H293.518ZM335.505 61.3752H344.122V69.0806C344.122 78.3602 339.482 83.6628 330.534 83.6628C321.585 83.6628 316.946 78.3602 316.946 69.0806V38.9219C316.946 29.6423 321.585 24.3396 330.534 24.3396C339.482 24.3396 344.122 29.6423 344.122 38.9219V44.5559H335.505V38.3419C335.505 34.1992 333.682 32.625 330.782 32.625C327.882 32.625 326.06 34.1992 326.06 38.3419V69.6606C326.06 73.8032 327.882 75.2946 330.782 75.2946C333.682 75.2946 335.505 73.8032 335.505 69.6606V61.3752ZM367.051 33.2878V49.4443H379.562V57.7296H367.051V74.7146H382.793V83H357.937V25.0025H382.793V33.2878H367.051Z" fill="black"/>
<path d="M17.3016 33.2878V33.0275H17.0413V33.2878H17.3016ZM17.3016 49.4443H17.0413V49.7047H17.3016V49.4443ZM29.8125 49.4443H30.0729V49.1839H29.8125V49.4443ZM29.8125 57.7296V57.99H30.0729V57.7296H29.8125ZM17.3016 57.7296V57.4693H17.0413V57.7296H17.3016ZM17.3016 74.7146H17.0413V74.975H17.3016V74.7146ZM33.0438 74.7146H33.3042V74.4543H33.0438V74.7146ZM33.0438 83V83.2604H33.3042V83H33.0438ZM8.18774 83H7.92737V83.2604H8.18774V83ZM8.18774 25.0025V24.7421H7.92737V25.0025H8.18774ZM33.0438 25.0025H33.3042V24.7421H33.0438V25.0025ZM33.0438 33.2878V33.5482H33.3042V33.2878H33.0438ZM17.0413 33.2878V49.4443H17.562V33.2878H17.0413ZM17.3016 49.7047H29.8125V49.1839H17.3016V49.7047ZM29.5522 49.4443V57.7296H30.0729V49.4443H29.5522ZM29.8125 57.4693H17.3016V57.99H29.8125V57.4693ZM17.0413 57.7296V74.7146H17.562V57.7296H17.0413ZM17.3016 74.975H33.0438V74.4543H17.3016V74.975ZM32.7835 74.7146V83H33.3042V74.7146H32.7835ZM33.0438 82.7396H8.18774V83.2604H33.0438V82.7396ZM8.44812 83V25.0025H7.92737V83H8.44812ZM8.18774 25.2628H33.0438V24.7421H8.18774V25.2628ZM32.7835 25.0025V33.2878H33.3042V25.0025H32.7835ZM33.0438 33.0275H17.3016V33.5482H33.0438V33.0275ZM68.933 25.0025V24.7421H68.7447L68.6857 24.921L68.933 25.0025ZM77.3841 25.0025L77.6308 25.0859L77.747 24.7421H77.3841V25.0025ZM67.8559 53.1727L67.6093 53.0893L67.5809 53.1731L67.6096 53.2569L67.8559 53.1727ZM78.0469 83V83.2604H78.4111L78.2933 82.9158L78.0469 83ZM68.4359 83L68.1883 83.0805L68.2467 83.2604H68.4359V83ZM60.9791 60.0495L61.2267 59.9691L60.9805 59.2111L60.7317 59.9683L60.9791 60.0495ZM53.4394 83V83.2604H53.6279L53.6868 83.0813L53.4394 83ZM44.9055 83L44.6591 82.9158L44.5414 83.2604H44.9055V83ZM55.0965 53.1727L55.3429 53.2569L55.3715 53.1731L55.3431 53.0893L55.0965 53.1727ZM45.5683 25.0025V24.7421H45.2054L45.3217 25.0859L45.5683 25.0025ZM55.0136 25.0025L55.2615 24.9227L55.2034 24.7421H55.0136V25.0025ZM61.8905 46.3787L61.6426 46.4584L61.8875 47.2197L62.1378 46.4602L61.8905 46.3787ZM68.933 25.2628H77.3841V24.7421H68.933V25.2628ZM77.1375 24.919L67.6093 53.0893L68.1026 53.2561L77.6308 25.0859L77.1375 24.919ZM67.6096 53.2569L77.8006 83.0842L78.2933 82.9158L68.1023 53.0885L67.6096 53.2569ZM78.0469 82.7396H68.4359V83.2604H78.0469V82.7396ZM68.6836 82.9195L61.2267 59.9691L60.7315 60.13L68.1883 83.0805L68.6836 82.9195ZM60.7317 59.9683L53.192 82.9187L53.6868 83.0813L61.2265 60.1308L60.7317 59.9683ZM53.4394 82.7396H44.9055V83.2604H53.4394V82.7396ZM45.1519 83.0842L55.3429 53.2569L54.8501 53.0885L44.6591 82.9158L45.1519 83.0842ZM55.3431 53.0893L45.815 24.919L45.3217 25.0859L54.8498 53.2561L55.3431 53.0893ZM45.5683 25.2628H55.0136V24.7421H45.5683V25.2628ZM54.7658 25.0822L61.6426 46.4584L62.1383 46.299L55.2615 24.9227L54.7658 25.0822ZM62.1378 46.4602L69.1803 25.0839L68.6857 24.921L61.6432 46.2972L62.1378 46.4602ZM99.9773 61.2095V60.9491H99.7169V61.2095H99.9773ZM99.9773 83V83.2604H100.238V83H99.9773ZM90.8634 83H90.603V83.2604H90.8634V83ZM90.8634 25.0025V24.7421H90.603V25.0025H90.8634ZM99.9773 33.2878V33.0275H99.7169V33.2878H99.9773ZM99.9773 52.9241H99.7169V53.1845H99.9773V52.9241ZM104.286 25.2628C108.795 25.2628 112.113 26.5122 114.307 28.8669C116.504 31.225 117.613 34.7342 117.613 39.3361H118.134C118.134 34.6585 117.007 31.0008 114.688 28.512C112.366 26.0198 108.89 24.7421 104.286 24.7421V25.2628ZM117.613 39.3361V46.8758H118.134V39.3361H117.613ZM117.613 46.8758C117.613 51.4778 116.504 54.9869 114.307 57.345C112.113 59.6998 108.795 60.9491 104.286 60.9491V61.4699C108.89 61.4699 112.366 60.1922 114.688 57.7C117.007 55.2111 118.134 51.5535 118.134 46.8758H117.613ZM104.286 60.9491H99.9773V61.4699H104.286V60.9491ZM99.7169 61.2095V83H100.238V61.2095H99.7169ZM99.9773 82.7396H90.8634V83.2604H99.9773V82.7396ZM91.1237 83V25.0025H90.603V83H91.1237ZM90.8634 25.2628H104.286V24.7421H90.8634V25.2628ZM104.286 33.0275H99.9773V33.5482H104.286V33.0275ZM99.7169 33.2878V52.9241H100.238V33.2878H99.7169ZM99.9773 53.1845H104.286V52.6638H99.9773V53.1845ZM104.286 53.1845C105.771 53.1845 106.978 52.8452 107.805 51.9166C108.624 50.9962 109.02 49.5503 109.02 47.4558H108.499C108.499 49.504 108.108 50.7923 107.416 51.5703C106.73 52.3403 105.701 52.6638 104.286 52.6638V53.1845ZM109.02 47.4558V38.7562H108.499V47.4558H109.02ZM109.02 38.7562C109.02 36.6617 108.624 35.2158 107.805 34.2954C106.978 33.3668 105.771 33.0275 104.286 33.0275V33.5482C105.701 33.5482 106.73 33.8717 107.416 34.6416C108.108 35.4197 108.499 36.708 108.499 38.7562H109.02ZM139.899 33.2878V33.0275H139.639V33.2878H139.899ZM139.899 49.4443H139.639V49.7047H139.899V49.4443ZM152.41 49.4443H152.67V49.1839H152.41V49.4443ZM152.41 57.7296V57.99H152.67V57.7296H152.41ZM139.899 57.7296V57.4693H139.639V57.7296H139.899ZM139.899 74.7146H139.639V74.975H139.899V74.7146ZM155.641 74.7146H155.902V74.4543H155.641V74.7146ZM155.641 83V83.2604H155.902V83H155.641ZM130.785 83H130.525V83.2604H130.785V83ZM130.785 25.0025V24.7421H130.525V25.0025H130.785ZM155.641 25.0025H155.902V24.7421H155.641V25.0025ZM155.641 33.2878V33.5482H155.902V33.2878H155.641ZM139.639 33.2878V49.4443H140.159V33.2878H139.639ZM139.899 49.7047H152.41V49.1839H139.899V49.7047ZM152.15 49.4443V57.7296H152.67V49.4443H152.15ZM152.41 57.4693H139.899V57.99H152.41V57.4693ZM139.639 57.7296V74.7146H140.159V57.7296H139.639ZM139.899 74.975H155.641V74.4543H139.899V74.975ZM155.381 74.7146V83H155.902V74.7146H155.381ZM155.641 82.7396H130.785V83.2604H155.641V82.7396ZM131.046 83V25.0025H130.525V83H131.046ZM130.785 25.2628H155.641V24.7421H130.785V25.2628ZM155.381 25.0025V33.2878H155.902V25.0025H155.381ZM155.641 33.0275H139.899V33.5482H155.641V33.0275ZM197.91 83V83.2604H198.303L198.15 82.8985L197.91 83ZM188.631 83L188.384 83.0823L188.443 83.2604H188.631V83ZM178.688 59.3867V59.1263H178.428V59.3867H178.688ZM178.688 83V83.2604H178.949V83H178.688ZM169.574 83H169.314V83.2604H169.574V83ZM169.574 25.0025V24.7421H169.314V25.0025H169.574ZM190.868 54.6641L190.757 54.4284L190.226 54.6778L190.767 54.9043L190.868 54.6641ZM178.688 33.2878V33.0275H178.428V33.2878H178.688ZM178.688 51.1014H178.428V51.3617H178.688V51.1014ZM197.91 82.7396H188.631V83.2604H197.91V82.7396ZM188.878 82.9177C188.629 82.173 188.429 81.5915 188.288 80.6118C188.145 79.6258 188.062 78.2321 188.062 75.8746H187.542C187.542 78.2398 187.625 79.663 187.772 80.6862C187.921 81.7158 188.135 82.3356 188.384 83.0823L188.878 82.9177ZM188.062 75.8746V66.7607H187.542V75.8746H188.062ZM188.062 66.7607C188.062 64.0501 187.606 62.1296 186.573 60.8876C185.529 59.633 183.946 59.1263 181.837 59.1263V59.6471C183.87 59.6471 185.269 60.1346 186.173 61.2207C187.087 62.3193 187.542 64.0858 187.542 66.7607H188.062ZM181.837 59.1263H178.688V59.6471H181.837V59.1263ZM178.428 59.3867V83H178.949V59.3867H178.428ZM178.688 82.7396H169.574V83.2604H178.688V82.7396ZM169.835 83V25.0025H169.314V83H169.835ZM169.574 25.2628H183.328V24.7421H169.574V25.2628ZM183.328 25.2628C188.015 25.2628 191.311 26.3528 193.438 28.4999C195.565 30.6473 196.573 33.9017 196.573 38.3419H197.094C197.094 33.8339 196.071 30.4185 193.808 28.1334C191.543 25.8477 188.086 24.7421 183.328 24.7421V25.2628ZM196.573 38.3419V42.8988H197.094V38.3419H196.573ZM196.573 42.8988C196.573 48.8077 194.691 52.5817 190.757 54.4284L190.978 54.8998C195.164 52.9351 197.094 48.9209 197.094 42.8988H196.573ZM190.767 54.9043C195.172 56.7464 196.656 60.9894 196.656 67.0092H197.176C197.176 60.9325 195.677 56.393 190.968 54.4238L190.767 54.9043ZM196.656 67.0092V75.9574H197.176V67.0092H196.656ZM196.656 75.9574C196.656 78.7742 196.736 80.8937 197.67 83.1015L198.15 82.8985C197.261 80.7979 197.176 78.7747 197.176 75.9574H196.656ZM183.079 33.0275H178.688V33.5482H183.079V33.0275ZM178.428 33.2878V51.1014H178.949V33.2878H178.428ZM178.688 51.3617H182.251V50.841H178.688V51.3617ZM182.251 51.3617C183.982 51.3617 185.432 50.9824 186.444 49.9588C187.455 48.9364 187.98 47.3224 187.98 44.9702H187.459C187.459 47.2578 186.947 48.7093 186.074 49.5926C185.201 50.4746 183.917 50.841 182.251 50.841V51.3617ZM187.98 44.9702V39.2533H187.459V44.9702H187.98ZM187.98 39.2533C187.98 37.1626 187.626 35.5997 186.817 34.5573C185.995 33.4996 184.745 33.0275 183.079 33.0275V33.5482C184.645 33.5482 185.715 33.9874 186.405 34.8768C187.108 35.7815 187.459 37.2013 187.459 39.2533H187.98ZM211.195 83H210.935V83.2604H211.195V83ZM211.195 25.0025V24.7421H210.935V25.0025H211.195ZM220.309 25.0025H220.57V24.7421H220.309V25.0025ZM220.309 83V83.2604H220.57V83H220.309ZM211.456 83V25.0025H210.935V83H211.456ZM211.195 25.2628H220.309V24.7421H211.195V25.2628ZM220.049 25.0025V83H220.57V25.0025H220.049ZM220.309 82.7396H211.195V83.2604H220.309V82.7396ZM244.372 33.2878V33.0275H244.112V33.2878H244.372ZM244.372 49.4443H244.112V49.7047H244.372V49.4443ZM256.883 49.4443H257.144V49.1839H256.883V49.4443ZM256.883 57.7296V57.99H257.144V57.7296H256.883ZM244.372 57.7296V57.4693H244.112V57.7296H244.372ZM244.372 74.7146H244.112V74.975H244.372V74.7146ZM260.115 74.7146H260.375V74.4543H260.115V74.7146ZM260.115 83V83.2604H260.375V83H260.115ZM235.258 83H234.998V83.2604H235.258V83ZM235.258 25.0025V24.7421H234.998V25.0025H235.258ZM260.115 25.0025H260.375V24.7421H260.115V25.0025ZM260.115 33.2878V33.5482H260.375V33.2878H260.115ZM244.112 33.2878V49.4443H244.633V33.2878H244.112ZM244.372 49.7047H256.883V49.1839H244.372V49.7047ZM256.623 49.4443V57.7296H257.144V49.4443H256.623ZM256.883 57.4693H244.372V57.99H256.883V57.4693ZM244.112 57.7296V74.7146H244.633V57.7296H244.112ZM244.372 74.975H260.115V74.4543H244.372V74.975ZM259.854 74.7146V83H260.375V74.7146H259.854ZM260.115 82.7396H235.258V83.2604H260.115V82.7396ZM235.519 83V25.0025H234.998V83H235.519ZM235.258 25.2628H260.115V24.7421H235.258V25.2628ZM259.854 25.0025V33.2878H260.375V25.0025H259.854ZM260.115 33.0275H244.372V33.5482H260.115V33.0275ZM293.518 83L293.267 83.0679L293.319 83.2604H293.518V83ZM282.167 40.9932L282.419 40.9253L281.907 40.9932H282.167ZM282.167 83V83.2604H282.428V83H282.167ZM273.965 83H273.704V83.2604H273.965V83ZM273.965 25.0025V24.7421H273.704V25.0025H273.965ZM285.398 25.0025L285.65 24.9347L285.598 24.7421H285.398V25.0025ZM294.761 59.7181L294.51 59.7859L295.021 59.7181H294.761ZM294.761 25.0025V24.7421H294.501V25.0025H294.761ZM302.881 25.0025H303.141V24.7421H302.881V25.0025ZM302.881 83V83.2604H303.141V83H302.881ZM293.77 82.9321L282.419 40.9253L281.916 41.0611L293.267 83.0679L293.77 82.9321ZM281.907 40.9932V83H282.428V40.9932H281.907ZM282.167 82.7396H273.965V83.2604H282.167V82.7396ZM274.225 83V25.0025H273.704V83H274.225ZM273.965 25.2628H285.398V24.7421H273.965V25.2628ZM285.147 25.0703L294.51 59.7859L295.012 59.6503L285.65 24.9347L285.147 25.0703ZM295.021 59.7181V25.0025H294.501V59.7181H295.021ZM294.761 25.2628H302.881V24.7421H294.761V25.2628ZM302.62 25.0025V83H303.141V25.0025H302.62ZM302.881 82.7396H293.518V83.2604H302.881V82.7396ZM335.505 61.3752V61.1148H335.245V61.3752H335.505ZM344.122 61.3752H344.382V61.1148H344.122V61.3752ZM344.122 44.5559V44.8163H344.382V44.5559H344.122ZM335.505 44.5559H335.245V44.8163H335.505V44.5559ZM335.505 61.6356H344.122V61.1148H335.505V61.6356ZM343.861 61.3752V69.0806H344.382V61.3752H343.861ZM343.861 69.0806C343.861 73.6803 342.711 77.2537 340.491 79.6756C338.275 82.0938 334.956 83.4025 330.534 83.4025V83.9232C335.06 83.9232 338.535 82.5806 340.875 80.0275C343.212 77.4782 344.382 73.7605 344.382 69.0806H343.861ZM330.534 83.4025C326.112 83.4025 322.793 82.0938 320.576 79.6756C318.356 77.2537 317.206 73.6803 317.206 69.0806H316.685C316.685 73.7605 317.855 77.4782 320.192 80.0275C322.532 82.5806 326.007 83.9232 330.534 83.9232V83.4025ZM317.206 69.0806V38.9219H316.685V69.0806H317.206ZM317.206 38.9219C317.206 34.3222 318.356 30.7487 320.576 28.3268C322.793 25.9087 326.112 24.6 330.534 24.6V24.0793C326.007 24.0793 322.532 25.4219 320.192 27.975C317.855 30.5243 316.685 34.2419 316.685 38.9219H317.206ZM330.534 24.6C334.956 24.6 338.275 25.9087 340.491 28.3268C342.711 30.7487 343.861 34.3222 343.861 38.9219H344.382C344.382 34.2419 343.212 30.5243 340.875 27.975C338.535 25.4219 335.06 24.0793 330.534 24.0793V24.6ZM343.861 38.9219V44.5559H344.382V38.9219H343.861ZM344.122 44.2955H335.505V44.8163H344.122V44.2955ZM335.765 44.5559V38.3419H335.245V44.5559H335.765ZM335.765 38.3419C335.765 36.2382 335.303 34.7345 334.425 33.756C333.541 32.7719 332.278 32.3646 330.782 32.3646V32.8854C332.186 32.8854 333.284 33.2652 334.037 34.1039C334.795 34.9481 335.245 36.3029 335.245 38.3419H335.765ZM330.782 32.3646C329.286 32.3646 328.023 32.7719 327.14 33.756C326.261 34.7345 325.799 36.2382 325.799 38.3419H326.32C326.32 36.3029 326.769 34.9481 327.527 34.1039C328.28 33.2652 329.378 32.8854 330.782 32.8854V32.3646ZM325.799 38.3419V69.6606H326.32V38.3419H325.799ZM325.799 69.6606C325.799 71.764 326.261 73.2487 327.142 74.2072C328.027 75.1705 329.29 75.555 330.782 75.555V75.0342C329.375 75.0342 328.277 74.673 327.525 73.8549C326.769 73.0321 326.32 71.6998 326.32 69.6606H325.799ZM330.782 75.555C332.275 75.555 333.538 75.1705 334.423 74.2072C335.303 73.2487 335.765 71.764 335.765 69.6606H335.245C335.245 71.6998 334.795 73.0321 334.039 73.8549C333.288 74.673 332.19 75.0342 330.782 75.0342V75.555ZM335.765 69.6606V61.3752H335.245V69.6606H335.765ZM367.051 33.2878V33.0275H366.79V33.2878H367.051ZM367.051 49.4443H366.79V49.7047H367.051V49.4443ZM379.562 49.4443H379.822V49.1839H379.562V49.4443ZM379.562 57.7296V57.99H379.822V57.7296H379.562ZM367.051 57.7296V57.4693H366.79V57.7296H367.051ZM367.051 74.7146H366.79V74.975H367.051V74.7146ZM382.793 74.7146H383.053V74.4543H382.793V74.7146ZM382.793 83V83.2604H383.053V83H382.793ZM357.937 83H357.676V83.2604H357.937V83ZM357.937 25.0025V24.7421H357.676V25.0025H357.937ZM382.793 25.0025H383.053V24.7421H382.793V25.0025ZM382.793 33.2878V33.5482H383.053V33.2878H382.793ZM366.79 33.2878V49.4443H367.311V33.2878H366.79ZM367.051 49.7047H379.562V49.1839H367.051V49.7047ZM379.301 49.4443V57.7296H379.822V49.4443H379.301ZM379.562 57.4693H367.051V57.99H379.562V57.4693ZM366.79 57.7296V74.7146H367.311V57.7296H366.79ZM367.051 74.975H382.793V74.4543H367.051V74.975ZM382.533 74.7146V83H383.053V74.7146H382.533ZM382.793 82.7396H357.937V83.2604H382.793V82.7396ZM358.197 83V25.0025H357.676V83H358.197ZM357.937 25.2628H382.793V24.7421H357.937V25.2628ZM382.533 25.0025V33.2878H383.053V25.0025H382.533ZM382.793 33.0275H367.051V33.5482H382.793V33.0275Z" fill="#333333" mask="url(#path-1-outside-1_0_1013)"/>
<mask id="path-3-outside-2_0_1013" maskUnits="userSpaceOnUse" x="7" y="30.5273" width="377" height="60" fill="black">
<rect fill="white" x="7" y="30.5273" width="377" height="60"/>
<path d="M17.3016 39.8152V55.9716H29.8125V64.257H17.3016V81.242H33.0438V89.5273H8.18774V31.5298H33.0438V39.8152H17.3016ZM68.933 31.5298H77.3841L67.8559 59.7L78.0469 89.5273H68.4359L60.9791 66.5769L53.4394 89.5273H44.9055L55.0965 59.7L45.5683 31.5298H55.0136L61.8905 52.906L68.933 31.5298ZM104.286 31.5298C113.4 31.5298 117.874 36.5839 117.874 45.8635V53.4032C117.874 62.6828 113.4 67.7368 104.286 67.7368H99.9773V89.5273H90.8634V31.5298H104.286ZM104.286 39.8152H99.9773V59.4515H104.286C107.186 59.4515 108.76 58.1258 108.76 53.9831V45.2835C108.76 41.1408 107.186 39.8152 104.286 39.8152ZM139.899 39.8152V55.9716H152.41V64.257H139.899V81.242H155.641V89.5273H130.785V31.5298H155.641V39.8152H139.899ZM197.91 89.5273H188.631C188.134 88.036 187.802 87.1246 187.802 82.4019V73.288C187.802 67.9025 185.979 65.9141 181.837 65.9141H178.688V89.5273H169.574V31.5298H183.328C192.773 31.5298 196.833 35.921 196.833 44.8692V49.4262C196.833 55.3916 194.928 59.2858 190.868 61.1914C195.425 63.097 196.916 67.4883 196.916 73.5366V82.4848C196.916 85.3018 196.999 87.3731 197.91 89.5273ZM183.079 39.8152H178.688V57.6287H182.251C185.648 57.6287 187.719 56.1373 187.719 51.4975V45.7806C187.719 41.6379 186.311 39.8152 183.079 39.8152ZM211.195 89.5273V31.5298H220.309V89.5273H211.195ZM244.372 39.8152V55.9716H256.883V64.257H244.372V81.242H260.115V89.5273H235.258V31.5298H260.115V39.8152H244.372ZM293.518 89.5273L282.167 47.5206V89.5273H273.965V31.5298H285.398L294.761 66.2455V31.5298H302.881V89.5273H293.518ZM335.505 67.9025H344.122V75.6079C344.122 84.8875 339.482 90.1902 330.534 90.1902C321.585 90.1902 316.946 84.8875 316.946 75.6079V45.4492C316.946 36.1696 321.585 30.867 330.534 30.867C339.482 30.867 344.122 36.1696 344.122 45.4492V51.0833H335.505V44.8692C335.505 40.7266 333.682 39.1523 330.782 39.1523C327.882 39.1523 326.06 40.7266 326.06 44.8692V76.1879C326.06 80.3306 327.882 81.822 330.782 81.822C333.682 81.822 335.505 80.3306 335.505 76.1879V67.9025ZM367.051 39.8152V55.9716H379.562V64.257H367.051V81.242H382.793V89.5273H357.937V31.5298H382.793V39.8152H367.051Z"/>
</mask>
<path d="M17.3016 39.8152V55.9716H29.8125V64.257H17.3016V81.242H33.0438V89.5273H8.18774V31.5298H33.0438V39.8152H17.3016ZM68.933 31.5298H77.3841L67.8559 59.7L78.0469 89.5273H68.4359L60.9791 66.5769L53.4394 89.5273H44.9055L55.0965 59.7L45.5683 31.5298H55.0136L61.8905 52.906L68.933 31.5298ZM104.286 31.5298C113.4 31.5298 117.874 36.5839 117.874 45.8635V53.4032C117.874 62.6828 113.4 67.7368 104.286 67.7368H99.9773V89.5273H90.8634V31.5298H104.286ZM104.286 39.8152H99.9773V59.4515H104.286C107.186 59.4515 108.76 58.1258 108.76 53.9831V45.2835C108.76 41.1408 107.186 39.8152 104.286 39.8152ZM139.899 39.8152V55.9716H152.41V64.257H139.899V81.242H155.641V89.5273H130.785V31.5298H155.641V39.8152H139.899ZM197.91 89.5273H188.631C188.134 88.036 187.802 87.1246 187.802 82.4019V73.288C187.802 67.9025 185.979 65.9141 181.837 65.9141H178.688V89.5273H169.574V31.5298H183.328C192.773 31.5298 196.833 35.921 196.833 44.8692V49.4262C196.833 55.3916 194.928 59.2858 190.868 61.1914C195.425 63.097 196.916 67.4883 196.916 73.5366V82.4848C196.916 85.3018 196.999 87.3731 197.91 89.5273ZM183.079 39.8152H178.688V57.6287H182.251C185.648 57.6287 187.719 56.1373 187.719 51.4975V45.7806C187.719 41.6379 186.311 39.8152 183.079 39.8152ZM211.195 89.5273V31.5298H220.309V89.5273H211.195ZM244.372 39.8152V55.9716H256.883V64.257H244.372V81.242H260.115V89.5273H235.258V31.5298H260.115V39.8152H244.372ZM293.518 89.5273L282.167 47.5206V89.5273H273.965V31.5298H285.398L294.761 66.2455V31.5298H302.881V89.5273H293.518ZM335.505 67.9025H344.122V75.6079C344.122 84.8875 339.482 90.1902 330.534 90.1902C321.585 90.1902 316.946 84.8875 316.946 75.6079V45.4492C316.946 36.1696 321.585 30.867 330.534 30.867C339.482 30.867 344.122 36.1696 344.122 45.4492V51.0833H335.505V44.8692C335.505 40.7266 333.682 39.1523 330.782 39.1523C327.882 39.1523 326.06 40.7266 326.06 44.8692V76.1879C326.06 80.3306 327.882 81.822 330.782 81.822C333.682 81.822 335.505 80.3306 335.505 76.1879V67.9025ZM367.051 39.8152V55.9716H379.562V64.257H367.051V81.242H382.793V89.5273H357.937V31.5298H382.793V39.8152H367.051Z" fill="black"/>
<path d="M17.3016 39.8152V39.5548H17.0413V39.8152H17.3016ZM17.3016 55.9716H17.0413V56.232H17.3016V55.9716ZM29.8125 55.9716H30.0729V55.7113H29.8125V55.9716ZM29.8125 64.257V64.5174H30.0729V64.257H29.8125ZM17.3016 64.257V63.9966H17.0413V64.257H17.3016ZM17.3016 81.242H17.0413V81.5024H17.3016V81.242ZM33.0438 81.242H33.3042V80.9816H33.0438V81.242ZM33.0438 89.5273V89.7877H33.3042V89.5273H33.0438ZM8.18774 89.5273H7.92737V89.7877H8.18774V89.5273ZM8.18774 31.5298V31.2694H7.92737V31.5298H8.18774ZM33.0438 31.5298H33.3042V31.2694H33.0438V31.5298ZM33.0438 39.8152V40.0755H33.3042V39.8152H33.0438ZM17.0413 39.8152V55.9716H17.562V39.8152H17.0413ZM17.3016 56.232H29.8125V55.7113H17.3016V56.232ZM29.5522 55.9716V64.257H30.0729V55.9716H29.5522ZM29.8125 63.9966H17.3016V64.5174H29.8125V63.9966ZM17.0413 64.257V81.242H17.562V64.257H17.0413ZM17.3016 81.5024H33.0438V80.9816H17.3016V81.5024ZM32.7835 81.242V89.5273H33.3042V81.242H32.7835ZM33.0438 89.267H8.18774V89.7877H33.0438V89.267ZM8.44812 89.5273V31.5298H7.92737V89.5273H8.44812ZM8.18774 31.7902H33.0438V31.2694H8.18774V31.7902ZM32.7835 31.5298V39.8152H33.3042V31.5298H32.7835ZM33.0438 39.5548H17.3016V40.0755H33.0438V39.5548ZM68.933 31.5298V31.2694H68.7447L68.6857 31.4483L68.933 31.5298ZM77.3841 31.5298L77.6308 31.6132L77.747 31.2694H77.3841V31.5298ZM67.8559 59.7L67.6093 59.6166L67.5809 59.7005L67.6096 59.7842L67.8559 59.7ZM78.0469 89.5273V89.7877H78.4111L78.2933 89.4432L78.0469 89.5273ZM68.4359 89.5273L68.1883 89.6078L68.2467 89.7877H68.4359V89.5273ZM60.9791 66.5769L61.2267 66.4964L60.9805 65.7385L60.7317 66.4956L60.9791 66.5769ZM53.4394 89.5273V89.7877H53.6279L53.6868 89.6086L53.4394 89.5273ZM44.9055 89.5273L44.6591 89.4432L44.5414 89.7877H44.9055V89.5273ZM55.0965 59.7L55.3429 59.7842L55.3715 59.7005L55.3431 59.6166L55.0965 59.7ZM45.5683 31.5298V31.2694H45.2054L45.3217 31.6132L45.5683 31.5298ZM55.0136 31.5298L55.2615 31.4501L55.2034 31.2694H55.0136V31.5298ZM61.8905 52.906L61.6426 52.9858L61.8875 53.7471L62.1378 52.9875L61.8905 52.906ZM68.933 31.7902H77.3841V31.2694H68.933V31.7902ZM77.1375 31.4464L67.6093 59.6166L68.1026 59.7835L77.6308 31.6132L77.1375 31.4464ZM67.6096 59.7842L77.8006 89.6115L78.2933 89.4432L68.1023 59.6159L67.6096 59.7842ZM78.0469 89.267H68.4359V89.7877H78.0469V89.267ZM68.6836 89.4469L61.2267 66.4964L60.7315 66.6573L68.1883 89.6078L68.6836 89.4469ZM60.7317 66.4956L53.192 89.4461L53.6868 89.6086L61.2265 66.6582L60.7317 66.4956ZM53.4394 89.267H44.9055V89.7877H53.4394V89.267ZM45.1519 89.6115L55.3429 59.7842L54.8501 59.6159L44.6591 89.4432L45.1519 89.6115ZM55.3431 59.6166L45.815 31.4464L45.3217 31.6132L54.8498 59.7835L55.3431 59.6166ZM45.5683 31.7902H55.0136V31.2694H45.5683V31.7902ZM54.7658 31.6095L61.6426 52.9858L62.1383 52.8263L55.2615 31.4501L54.7658 31.6095ZM62.1378 52.9875L69.1803 31.6113L68.6857 31.4483L61.6432 52.8246L62.1378 52.9875ZM99.9773 67.7368V67.4765H99.7169V67.7368H99.9773ZM99.9773 89.5273V89.7877H100.238V89.5273H99.9773ZM90.8634 89.5273H90.603V89.7877H90.8634V89.5273ZM90.8634 31.5298V31.2694H90.603V31.5298H90.8634ZM99.9773 39.8152V39.5548H99.7169V39.8152H99.9773ZM99.9773 59.4515H99.7169V59.7119H99.9773V59.4515ZM104.286 31.7902C108.795 31.7902 112.113 33.0395 114.307 35.3943C116.504 37.7524 117.613 41.2615 117.613 45.8635H118.134C118.134 41.1858 117.007 37.5282 114.688 35.0393C112.366 32.5471 108.89 31.2694 104.286 31.2694V31.7902ZM117.613 45.8635V53.4032H118.134V45.8635H117.613ZM117.613 53.4032C117.613 58.0051 116.504 61.5143 114.307 63.8724C112.113 66.2271 108.795 67.4765 104.286 67.4765V67.9972C108.89 67.9972 112.366 66.7195 114.688 64.2273C117.007 61.7385 118.134 58.0808 118.134 53.4032H117.613ZM104.286 67.4765H99.9773V67.9972H104.286V67.4765ZM99.7169 67.7368V89.5273H100.238V67.7368H99.7169ZM99.9773 89.267H90.8634V89.7877H99.9773V89.267ZM91.1237 89.5273V31.5298H90.603V89.5273H91.1237ZM90.8634 31.7902H104.286V31.2694H90.8634V31.7902ZM104.286 39.5548H99.9773V40.0755H104.286V39.5548ZM99.7169 39.8152V59.4515H100.238V39.8152H99.7169ZM99.9773 59.7119H104.286V59.1911H99.9773V59.7119ZM104.286 59.7119C105.771 59.7119 106.978 59.3725 107.805 58.4439C108.624 57.5235 109.02 56.0776 109.02 53.9831H108.499C108.499 56.0313 108.108 57.3196 107.416 58.0977C106.73 58.8676 105.701 59.1911 104.286 59.1911V59.7119ZM109.02 53.9831V45.2835H108.499V53.9831H109.02ZM109.02 45.2835C109.02 43.189 108.624 41.7431 107.805 40.8227C106.978 39.8941 105.771 39.5548 104.286 39.5548V40.0755C105.701 40.0755 106.73 40.399 107.416 41.169C108.108 41.947 108.499 43.2353 108.499 45.2835H109.02ZM139.899 39.8152V39.5548H139.639V39.8152H139.899ZM139.899 55.9716H139.639V56.232H139.899V55.9716ZM152.41 55.9716H152.67V55.7113H152.41V55.9716ZM152.41 64.257V64.5174H152.67V64.257H152.41ZM139.899 64.257V63.9966H139.639V64.257H139.899ZM139.899 81.242H139.639V81.5024H139.899V81.242ZM155.641 81.242H155.902V80.9816H155.641V81.242ZM155.641 89.5273V89.7877H155.902V89.5273H155.641ZM130.785 89.5273H130.525V89.7877H130.785V89.5273ZM130.785 31.5298V31.2694H130.525V31.5298H130.785ZM155.641 31.5298H155.902V31.2694H155.641V31.5298ZM155.641 39.8152V40.0755H155.902V39.8152H155.641ZM139.639 39.8152V55.9716H140.159V39.8152H139.639ZM139.899 56.232H152.41V55.7113H139.899V56.232ZM152.15 55.9716V64.257H152.67V55.9716H152.15ZM152.41 63.9966H139.899V64.5174H152.41V63.9966ZM139.639 64.257V81.242H140.159V64.257H139.639ZM139.899 81.5024H155.641V80.9816H139.899V81.5024ZM155.381 81.242V89.5273H155.902V81.242H155.381ZM155.641 89.267H130.785V89.7877H155.641V89.267ZM131.046 89.5273V31.5298H130.525V89.5273H131.046ZM130.785 31.7902H155.641V31.2694H130.785V31.7902ZM155.381 31.5298V39.8152H155.902V31.5298H155.381ZM155.641 39.5548H139.899V40.0755H155.641V39.5548ZM197.91 89.5273V89.7877H198.303L198.15 89.4259L197.91 89.5273ZM188.631 89.5273L188.384 89.6097L188.443 89.7877H188.631V89.5273ZM178.688 65.9141V65.6537H178.428V65.9141H178.688ZM178.688 89.5273V89.7877H178.949V89.5273H178.688ZM169.574 89.5273H169.314V89.7877H169.574V89.5273ZM169.574 31.5298V31.2694H169.314V31.5298H169.574ZM190.868 61.1914L190.757 60.9557L190.226 61.2051L190.767 61.4316L190.868 61.1914ZM178.688 39.8152V39.5548H178.428V39.8152H178.688ZM178.688 57.6287H178.428V57.8891H178.688V57.6287ZM197.91 89.267H188.631V89.7877H197.91V89.267ZM188.878 89.445C188.629 88.7004 188.429 88.1188 188.288 87.1392C188.145 86.1532 188.062 84.7594 188.062 82.4019H187.542C187.542 84.7671 187.625 86.1904 187.772 87.2136C187.921 88.2431 188.135 88.863 188.384 89.6097L188.878 89.445ZM188.062 82.4019V73.288H187.542V82.4019H188.062ZM188.062 73.288C188.062 70.5775 187.606 68.6569 186.573 67.415C185.529 66.1604 183.946 65.6537 181.837 65.6537V66.1744C183.87 66.1744 185.269 66.662 186.173 67.748C187.087 68.8467 187.542 70.6131 187.542 73.288H188.062ZM181.837 65.6537H178.688V66.1744H181.837V65.6537ZM178.428 65.9141V89.5273H178.949V65.9141H178.428ZM178.688 89.267H169.574V89.7877H178.688V89.267ZM169.835 89.5273V31.5298H169.314V89.5273H169.835ZM169.574 31.7902H183.328V31.2694H169.574V31.7902ZM183.328 31.7902C188.015 31.7902 191.311 32.8801 193.438 35.0272C195.565 37.1747 196.573 40.4291 196.573 44.8692H197.094C197.094 40.3612 196.071 36.9459 193.808 34.6607C191.543 32.3751 188.086 31.2694 183.328 31.2694V31.7902ZM196.573 44.8692V49.4262H197.094V44.8692H196.573ZM196.573 49.4262C196.573 55.3351 194.691 59.1091 190.757 60.9557L190.978 61.4271C195.164 59.4625 197.094 55.4482 197.094 49.4262H196.573ZM190.767 61.4316C195.172 63.2737 196.656 67.5167 196.656 73.5366H197.176C197.176 67.4598 195.677 62.9204 190.968 60.9512L190.767 61.4316ZM196.656 73.5366V82.4848H197.176V73.5366H196.656ZM196.656 82.4848C196.656 85.3015 196.736 87.4211 197.67 89.6288L198.15 89.4259C197.261 87.3252 197.176 85.3021 197.176 82.4848H196.656ZM183.079 39.5548H178.688V40.0755H183.079V39.5548ZM178.428 39.8152V57.6287H178.949V39.8152H178.428ZM178.688 57.8891H182.251V57.3683H178.688V57.8891ZM182.251 57.8891C183.982 57.8891 185.432 57.5097 186.444 56.4861C187.455 55.4638 187.98 53.8497 187.98 51.4975H187.459C187.459 53.7851 186.947 55.2367 186.074 56.1199C185.201 57.002 183.917 57.3683 182.251 57.3683V57.8891ZM187.98 51.4975V45.7806H187.459V51.4975H187.98ZM187.98 45.7806C187.98 43.6899 187.626 42.127 186.817 41.0847C185.995 40.027 184.745 39.5548 183.079 39.5548V40.0755C184.645 40.0755 185.715 40.5147 186.405 41.4041C187.108 42.3088 187.459 43.7287 187.459 45.7806H187.98ZM211.195 89.5273H210.935V89.7877H211.195V89.5273ZM211.195 31.5298V31.2694H210.935V31.5298H211.195ZM220.309 31.5298H220.57V31.2694H220.309V31.5298ZM220.309 89.5273V89.7877H220.57V89.5273H220.309ZM211.456 89.5273V31.5298H210.935V89.5273H211.456ZM211.195 31.7902H220.309V31.2694H211.195V31.7902ZM220.049 31.5298V89.5273H220.57V31.5298H220.049ZM220.309 89.267H211.195V89.7877H220.309V89.267ZM244.372 39.8152V39.5548H244.112V39.8152H244.372ZM244.372 55.9716H244.112V56.232H244.372V55.9716ZM256.883 55.9716H257.144V55.7113H256.883V55.9716ZM256.883 64.257V64.5174H257.144V64.257H256.883ZM244.372 64.257V63.9966H244.112V64.257H244.372ZM244.372 81.242H244.112V81.5024H244.372V81.242ZM260.115 81.242H260.375V80.9816H260.115V81.242ZM260.115 89.5273V89.7877H260.375V89.5273H260.115ZM235.258 89.5273H234.998V89.7877H235.258V89.5273ZM235.258 31.5298V31.2694H234.998V31.5298H235.258ZM260.115 31.5298H260.375V31.2694H260.115V31.5298ZM260.115 39.8152V40.0755H260.375V39.8152H260.115ZM244.112 39.8152V55.9716H244.633V39.8152H244.112ZM244.372 56.232H256.883V55.7113H244.372V56.232ZM256.623 55.9716V64.257H257.144V55.9716H256.623ZM256.883 63.9966H244.372V64.5174H256.883V63.9966ZM244.112 64.257V81.242H244.633V64.257H244.112ZM244.372 81.5024H260.115V80.9816H244.372V81.5024ZM259.854 81.242V89.5273H260.375V81.242H259.854ZM260.115 89.267H235.258V89.7877H260.115V89.267ZM235.519 89.5273V31.5298H234.998V89.5273H235.519ZM235.258 31.7902H260.115V31.2694H235.258V31.7902ZM259.854 31.5298V39.8152H260.375V31.5298H259.854ZM260.115 39.5548H244.372V40.0755H260.115V39.5548ZM293.518 89.5273L293.267 89.5953L293.319 89.7877H293.518V89.5273ZM282.167 47.5206L282.419 47.4526L281.907 47.5206H282.167ZM282.167 89.5273V89.7877H282.428V89.5273H282.167ZM273.965 89.5273H273.704V89.7877H273.965V89.5273ZM273.965 31.5298V31.2694H273.704V31.5298H273.965ZM285.398 31.5298L285.65 31.462L285.598 31.2694H285.398V31.5298ZM294.761 66.2455L294.51 66.3133L295.021 66.2455H294.761ZM294.761 31.5298V31.2694H294.501V31.5298H294.761ZM302.881 31.5298H303.141V31.2694H302.881V31.5298ZM302.881 89.5273V89.7877H303.141V89.5273H302.881ZM293.77 89.4594L282.419 47.4526L281.916 47.5885L293.267 89.5953L293.77 89.4594ZM281.907 47.5206V89.5273H282.428V47.5206H281.907ZM282.167 89.267H273.965V89.7877H282.167V89.267ZM274.225 89.5273V31.5298H273.704V89.5273H274.225ZM273.965 31.7902H285.398V31.2694H273.965V31.7902ZM285.147 31.5976L294.51 66.3133L295.012 66.1777L285.65 31.462L285.147 31.5976ZM295.021 66.2455V31.5298H294.501V66.2455H295.021ZM294.761 31.7902H302.881V31.2694H294.761V31.7902ZM302.62 31.5298V89.5273H303.141V31.5298H302.62ZM302.881 89.267H293.518V89.7877H302.881V89.267ZM335.505 67.9025V67.6422H335.245V67.9025H335.505ZM344.122 67.9025H344.382V67.6422H344.122V67.9025ZM344.122 51.0833V51.3436H344.382V51.0833H344.122ZM335.505 51.0833H335.245V51.3436H335.505V51.0833ZM335.505 68.1629H344.122V67.6422H335.505V68.1629ZM343.861 67.9025V75.6079H344.382V67.9025H343.861ZM343.861 75.6079C343.861 80.2076 342.711 83.7811 340.491 86.203C338.275 88.6211 334.956 89.9298 330.534 89.9298V90.4505C335.06 90.4505 338.535 89.1079 340.875 86.5548C343.212 84.0055 344.382 80.2879 344.382 75.6079H343.861ZM330.534 89.9298C326.112 89.9298 322.793 88.6211 320.576 86.203C318.356 83.7811 317.206 80.2076 317.206 75.6079H316.685C316.685 80.2879 317.855 84.0055 320.192 86.5548C322.532 89.1079 326.007 90.4505 330.534 90.4505V89.9298ZM317.206 75.6079V45.4492H316.685V75.6079H317.206ZM317.206 45.4492C317.206 40.8495 318.356 37.2761 320.576 34.8542C322.793 32.436 326.112 31.1274 330.534 31.1274V30.6066C326.007 30.6066 322.532 31.9492 320.192 34.5023C317.855 37.0516 316.685 40.7693 316.685 45.4492H317.206ZM330.534 31.1274C334.956 31.1274 338.275 32.436 340.491 34.8542C342.711 37.2761 343.861 40.8495 343.861 45.4492H344.382C344.382 40.7693 343.212 37.0516 340.875 34.5023C338.535 31.9492 335.06 30.6066 330.534 30.6066V31.1274ZM343.861 45.4492V51.0833H344.382V45.4492H343.861ZM344.122 50.8229H335.505V51.3436H344.122V50.8229ZM335.765 51.0833V44.8692H335.245V51.0833H335.765ZM335.765 44.8692C335.765 42.7656 335.303 41.2619 334.425 40.2833C333.541 39.2992 332.278 38.892 330.782 38.892V39.4127C332.186 39.4127 333.284 39.7926 334.037 40.6312C334.795 41.4755 335.245 42.8302 335.245 44.8692H335.765ZM330.782 38.892C329.286 38.892 328.023 39.2992 327.14 40.2833C326.261 41.2619 325.799 42.7656 325.799 44.8692H326.32C326.32 42.8302 326.769 41.4755 327.527 40.6312C328.28 39.7926 329.378 39.4127 330.782 39.4127V38.892ZM325.799 44.8692V76.1879H326.32V44.8692H325.799ZM325.799 76.1879C325.799 78.2913 326.261 79.776 327.142 80.7346C328.027 81.6979 329.29 82.0823 330.782 82.0823V81.5616C329.375 81.5616 328.277 81.2004 327.525 80.3823C326.769 79.5595 326.32 78.2272 326.32 76.1879H325.799ZM330.782 82.0823C332.275 82.0823 333.538 81.6979 334.423 80.7346C335.303 79.776 335.765 78.2913 335.765 76.1879H335.245C335.245 78.2272 334.795 79.5595 334.039 80.3823C333.288 81.2004 332.19 81.5616 330.782 81.5616V82.0823ZM335.765 76.1879V67.9025H335.245V76.1879H335.765ZM367.051 39.8152V39.5548H366.79V39.8152H367.051ZM367.051 55.9716H366.79V56.232H367.051V55.9716ZM379.562 55.9716H379.822V55.7113H379.562V55.9716ZM379.562 64.257V64.5174H379.822V64.257H379.562ZM367.051 64.257V63.9966H366.79V64.257H367.051ZM367.051 81.242H366.79V81.5024H367.051V81.242ZM382.793 81.242H383.053V80.9816H382.793V81.242ZM382.793 89.5273V89.7877H383.053V89.5273H382.793ZM357.937 89.5273H357.676V89.7877H357.937V89.5273ZM357.937 31.5298V31.2694H357.676V31.5298H357.937ZM382.793 31.5298H383.053V31.2694H382.793V31.5298ZM382.793 39.8152V40.0755H383.053V39.8152H382.793ZM366.79 39.8152V55.9716H367.311V39.8152H366.79ZM367.051 56.232H379.562V55.7113H367.051V56.232ZM379.301 55.9716V64.257H379.822V55.9716H379.301ZM379.562 63.9966H367.051V64.5174H379.562V63.9966ZM366.79 64.257V81.242H367.311V64.257H366.79ZM367.051 81.5024H382.793V80.9816H367.051V81.5024ZM382.533 81.242V89.5273H383.053V81.242H382.533ZM382.793 89.267H357.937V89.7877H382.793V89.267ZM358.197 89.5273V31.5298H357.676V89.5273H358.197ZM357.937 31.7902H382.793V31.2694H357.937V31.7902ZM382.533 31.5298V39.8152H383.053V31.5298H382.533ZM382.793 39.5548H367.051V40.0755H382.793V39.5548Z" fill="#333333" mask="url(#path-3-outside-2_0_1013)"/>
<mask id="path-5-outside-3_0_1013" maskUnits="userSpaceOnUse" x="7" y="35.1844" width="377" height="62" fill="black">
<rect fill="white" x="7" y="35.1844" width="377" height="62"/>
<path d="M17.3016 45.4722V61.6287H29.8125V69.914H17.3016V86.899H33.0438V95.1844H8.18774V37.1868H33.0438V45.4722H17.3016ZM68.933 37.1868H77.3841L67.8559 65.3571L78.0469 95.1844H68.4359L60.9791 72.2339L53.4394 95.1844H44.9055L55.0965 65.3571L45.5683 37.1868H55.0136L61.8905 58.5631L68.933 37.1868ZM104.286 37.1868C113.4 37.1868 117.874 42.2409 117.874 51.5205V59.0602C117.874 68.3398 113.4 73.3939 104.286 73.3939H99.9773V95.1844H90.8634V37.1868H104.286ZM104.286 45.4722H99.9773V65.1085H104.286C107.186 65.1085 108.76 63.7829 108.76 59.6402V50.9405C108.76 46.7979 107.186 45.4722 104.286 45.4722ZM139.899 45.4722V61.6287H152.41V69.914H139.899V86.899H155.641V95.1844H130.785V37.1868H155.641V45.4722H139.899ZM197.91 95.1844H188.631C188.134 93.693 187.802 92.7816 187.802 88.059V78.9451C187.802 73.5596 185.979 71.5711 181.837 71.5711H178.688V95.1844H169.574V37.1868H183.328C192.773 37.1868 196.833 41.5781 196.833 50.5263V55.0832C196.833 61.0487 194.928 64.9428 190.868 66.8484C195.425 68.7541 196.916 73.1453 196.916 79.1936V88.1418C196.916 90.9589 196.999 93.0302 197.91 95.1844ZM183.079 45.4722H178.688V63.2857H182.251C185.648 63.2857 187.719 61.7944 187.719 57.1546V51.4377C187.719 47.295 186.311 45.4722 183.079 45.4722ZM211.195 95.1844V37.1868H220.309V95.1844H211.195ZM244.372 45.4722V61.6287H256.883V69.914H244.372V86.899H260.115V95.1844H235.258V37.1868H260.115V45.4722H244.372ZM293.518 95.1844L282.167 53.1776V95.1844H273.965V37.1868H285.398L294.761 71.9025V37.1868H302.881V95.1844H293.518ZM335.505 73.5596H344.122V81.265C344.122 90.5446 339.482 95.8472 330.534 95.8472C321.585 95.8472 316.946 90.5446 316.946 81.265V51.1063C316.946 41.8266 321.585 36.524 330.534 36.524C339.482 36.524 344.122 41.8266 344.122 51.1063V56.7403H335.505V50.5263C335.505 46.3836 333.682 44.8094 330.782 44.8094C327.882 44.8094 326.06 46.3836 326.06 50.5263V81.845C326.06 85.9876 327.882 87.479 330.782 87.479C333.682 87.479 335.505 85.9876 335.505 81.845V73.5596ZM367.051 45.4722V61.6287H379.562V69.914H367.051V86.899H382.793V95.1844H357.937V37.1868H382.793V45.4722H367.051Z"/>
</mask>
<path d="M17.3016 45.4722V61.6287H29.8125V69.914H17.3016V86.899H33.0438V95.1844H8.18774V37.1868H33.0438V45.4722H17.3016ZM68.933 37.1868H77.3841L67.8559 65.3571L78.0469 95.1844H68.4359L60.9791 72.2339L53.4394 95.1844H44.9055L55.0965 65.3571L45.5683 37.1868H55.0136L61.8905 58.5631L68.933 37.1868ZM104.286 37.1868C113.4 37.1868 117.874 42.2409 117.874 51.5205V59.0602C117.874 68.3398 113.4 73.3939 104.286 73.3939H99.9773V95.1844H90.8634V37.1868H104.286ZM104.286 45.4722H99.9773V65.1085H104.286C107.186 65.1085 108.76 63.7829 108.76 59.6402V50.9405C108.76 46.7979 107.186 45.4722 104.286 45.4722ZM139.899 45.4722V61.6287H152.41V69.914H139.899V86.899H155.641V95.1844H130.785V37.1868H155.641V45.4722H139.899ZM197.91 95.1844H188.631C188.134 93.693 187.802 92.7816 187.802 88.059V78.9451C187.802 73.5596 185.979 71.5711 181.837 71.5711H178.688V95.1844H169.574V37.1868H183.328C192.773 37.1868 196.833 41.5781 196.833 50.5263V55.0832C196.833 61.0487 194.928 64.9428 190.868 66.8484C195.425 68.7541 196.916 73.1453 196.916 79.1936V88.1418C196.916 90.9589 196.999 93.0302 197.91 95.1844ZM183.079 45.4722H178.688V63.2857H182.251C185.648 63.2857 187.719 61.7944 187.719 57.1546V51.4377C187.719 47.295 186.311 45.4722 183.079 45.4722ZM211.195 95.1844V37.1868H220.309V95.1844H211.195ZM244.372 45.4722V61.6287H256.883V69.914H244.372V86.899H260.115V95.1844H235.258V37.1868H260.115V45.4722H244.372ZM293.518 95.1844L282.167 53.1776V95.1844H273.965V37.1868H285.398L294.761 71.9025V37.1868H302.881V95.1844H293.518ZM335.505 73.5596H344.122V81.265C344.122 90.5446 339.482 95.8472 330.534 95.8472C321.585 95.8472 316.946 90.5446 316.946 81.265V51.1063C316.946 41.8266 321.585 36.524 330.534 36.524C339.482 36.524 344.122 41.8266 344.122 51.1063V56.7403H335.505V50.5263C335.505 46.3836 333.682 44.8094 330.782 44.8094C327.882 44.8094 326.06 46.3836 326.06 50.5263V81.845C326.06 85.9876 327.882 87.479 330.782 87.479C333.682 87.479 335.505 85.9876 335.505 81.845V73.5596ZM367.051 45.4722V61.6287H379.562V69.914H367.051V86.899H382.793V95.1844H357.937V37.1868H382.793V45.4722H367.051Z" fill="white"/>
<path d="M17.3016 45.4722V44.3093H16.1387V45.4722H17.3016ZM17.3016 61.6287H16.1387V62.7916H17.3016V61.6287ZM29.8125 61.6287H30.9755V60.4657H29.8125V61.6287ZM29.8125 69.914V71.077H30.9755V69.914H29.8125ZM17.3016 69.914V68.7511H16.1387V69.914H17.3016ZM17.3016 86.899H16.1387V88.062H17.3016V86.899ZM33.0438 86.899H34.2068V85.7361H33.0438V86.899ZM33.0438 95.1844V96.3473H34.2068V95.1844H33.0438ZM8.18774 95.1844H7.02481V96.3473H8.18774V95.1844ZM8.18774 37.1868V36.0239H7.02481V37.1868H8.18774ZM33.0438 37.1868H34.2068V36.0239H33.0438V37.1868ZM33.0438 45.4722V46.6351H34.2068V45.4722H33.0438ZM16.1387 45.4722V61.6287H18.4646V45.4722H16.1387ZM17.3016 62.7916H29.8125V60.4657H17.3016V62.7916ZM28.6496 61.6287V69.914H30.9755V61.6287H28.6496ZM29.8125 68.7511H17.3016V71.077H29.8125V68.7511ZM16.1387 69.914V86.899H18.4646V69.914H16.1387ZM17.3016 88.062H33.0438V85.7361H17.3016V88.062ZM31.8809 86.899V95.1844H34.2068V86.899H31.8809ZM33.0438 94.0215H8.18774V96.3473H33.0438V94.0215ZM9.35067 95.1844V37.1868H7.02481V95.1844H9.35067ZM8.18774 38.3498H33.0438V36.0239H8.18774V38.3498ZM31.8809 37.1868V45.4722H34.2068V37.1868H31.8809ZM33.0438 44.3093H17.3016V46.6351H33.0438V44.3093ZM68.933 37.1868V36.0239H68.0918L67.8285 36.823L68.933 37.1868ZM77.3841 37.1868L78.4857 37.5595L79.0051 36.0239H77.3841V37.1868ZM67.8559 65.3571L66.7543 64.9845L66.6277 65.359L66.7555 65.7331L67.8559 65.3571ZM78.0469 95.1844V96.3473H79.6732L79.1474 94.8084L78.0469 95.1844ZM68.4359 95.1844L67.3299 95.5437L67.591 96.3473H68.4359V95.1844ZM60.9791 72.2339L62.0851 71.8746L60.9852 68.4893L59.8743 71.871L60.9791 72.2339ZM53.4394 95.1844V96.3473H54.2814L54.5442 95.5473L53.4394 95.1844ZM44.9055 95.1844L43.805 94.8084L43.2792 96.3473H44.9055V95.1844ZM55.0965 65.3571L56.197 65.7331L56.3248 65.359L56.1981 64.9845L55.0965 65.3571ZM45.5683 37.1868V36.0239H43.9473L44.4667 37.5595L45.5683 37.1868ZM55.0136 37.1868L56.1207 36.8307L55.8611 36.0239H55.0136V37.1868ZM61.8905 58.5631L60.7834 58.9192L61.8773 62.3195L62.995 58.927L61.8905 58.5631ZM68.933 38.3498H77.3841V36.0239H68.933V38.3498ZM76.2825 36.8142L66.7543 64.9845L68.9576 65.7297L78.4857 37.5595L76.2825 36.8142ZM66.7555 65.7331L76.9465 95.5604L79.1474 94.8084L68.9564 64.9811L66.7555 65.7331ZM78.0469 94.0215H68.4359V96.3473H78.0469V94.0215ZM69.5419 94.825L62.0851 71.8746L59.8731 72.5933L67.3299 95.5437L69.5419 94.825ZM59.8743 71.871L52.3346 94.8214L54.5442 95.5473L62.0839 72.5969L59.8743 71.871ZM53.4394 94.0215H44.9055V96.3473H53.4394V94.0215ZM46.006 95.5604L56.197 65.7331L53.996 64.9811L43.805 94.8084L46.006 95.5604ZM56.1981 64.9845L46.6699 36.8142L44.4667 37.5595L53.9949 65.7297L56.1981 64.9845ZM45.5683 38.3498H55.0136V36.0239H45.5683V38.3498ZM53.9066 37.543L60.7834 58.9192L62.9975 58.2069L56.1207 36.8307L53.9066 37.543ZM62.995 58.927L70.0376 37.5507L67.8285 36.823L60.786 58.1992L62.995 58.927ZM99.9773 73.3939V72.231H98.8143V73.3939H99.9773ZM99.9773 95.1844V96.3473H101.14V95.1844H99.9773ZM90.8634 95.1844H89.7004V96.3473H90.8634V95.1844ZM90.8634 37.1868V36.0239H89.7004V37.1868H90.8634ZM99.9773 45.4722V44.3093H98.8143V45.4722H99.9773ZM99.9773 65.1085H98.8143V66.2715H99.9773V65.1085ZM104.286 38.3498C108.631 38.3498 111.675 39.5499 113.646 41.6665C115.632 43.798 116.711 47.0498 116.711 51.5205H119.037C119.037 46.7116 117.878 42.7966 115.348 40.0811C112.805 37.3509 109.054 36.0239 104.286 36.0239V38.3498ZM116.711 51.5205V59.0602H119.037V51.5205H116.711ZM116.711 59.0602C116.711 63.5309 115.632 66.7827 113.646 68.9142C111.675 71.0309 108.631 72.231 104.286 72.231V74.5568C109.054 74.5568 112.805 73.2299 115.348 70.4996C117.878 67.7841 119.037 63.8691 119.037 59.0602H116.711ZM104.286 72.231H99.9773V74.5568H104.286V72.231ZM98.8143 73.3939V95.1844H101.14V73.3939H98.8143ZM99.9773 94.0215H90.8634V96.3473H99.9773V94.0215ZM92.0263 95.1844V37.1868H89.7004V95.1844H92.0263ZM90.8634 38.3498H104.286V36.0239H90.8634V38.3498ZM104.286 44.3093H99.9773V46.6351H104.286V44.3093ZM98.8143 45.4722V65.1085H101.14V45.4722H98.8143ZM99.9773 66.2715H104.286V63.9456H99.9773V66.2715ZM104.286 66.2715C105.892 66.2715 107.407 65.9046 108.479 64.7011C109.518 63.5339 109.923 61.8149 109.923 59.6402H107.597C107.597 61.6082 107.215 62.6233 106.742 63.1546C106.301 63.6497 105.579 63.9456 104.286 63.9456V66.2715ZM109.923 59.6402V50.9405H107.597V59.6402H109.923ZM109.923 50.9405C109.923 48.7659 109.518 47.0468 108.479 45.8796C107.407 44.6762 105.892 44.3093 104.286 44.3093V46.6351C105.579 46.6351 106.301 46.9311 106.742 47.4261C107.215 47.9575 107.597 48.9726 107.597 50.9405H109.923ZM139.899 45.4722V44.3093H138.736V45.4722H139.899ZM139.899 61.6287H138.736V62.7916H139.899V61.6287ZM152.41 61.6287H153.573V60.4657H152.41V61.6287ZM152.41 69.914V71.077H153.573V69.914H152.41ZM139.899 69.914V68.7511H138.736V69.914H139.899ZM139.899 86.899H138.736V88.062H139.899V86.899ZM155.641 86.899H156.804V85.7361H155.641V86.899ZM155.641 95.1844V96.3473H156.804V95.1844H155.641ZM130.785 95.1844H129.622V96.3473H130.785V95.1844ZM130.785 37.1868V36.0239H129.622V37.1868H130.785ZM155.641 37.1868H156.804V36.0239H155.641V37.1868ZM155.641 45.4722V46.6351H156.804V45.4722H155.641ZM138.736 45.4722V61.6287H141.062V45.4722H138.736ZM139.899 62.7916H152.41V60.4657H139.899V62.7916ZM151.247 61.6287V69.914H153.573V61.6287H151.247ZM152.41 68.7511H139.899V71.077H152.41V68.7511ZM138.736 69.914V86.899H141.062V69.914H138.736ZM139.899 88.062H155.641V85.7361H139.899V88.062ZM154.478 86.899V95.1844H156.804V86.899H154.478ZM155.641 94.0215H130.785V96.3473H155.641V94.0215ZM131.948 95.1844V37.1868H129.622V95.1844H131.948ZM130.785 38.3498H155.641V36.0239H130.785V38.3498ZM154.478 37.1868V45.4722H156.804V37.1868H154.478ZM155.641 44.3093H139.899V46.6351H155.641V44.3093ZM197.91 95.1844V96.3473H199.665L198.981 94.7313L197.91 95.1844ZM188.631 95.1844L187.527 95.5521L187.792 96.3473H188.631V95.1844ZM178.688 71.5711V70.4082H177.525V71.5711H178.688ZM178.688 95.1844V96.3473H179.851V95.1844H178.688ZM169.574 95.1844H168.411V96.3473H169.574V95.1844ZM169.574 37.1868V36.0239H168.411V37.1868H169.574ZM190.868 66.8484L190.374 65.7957L188 66.9098L190.419 67.9213L190.868 66.8484ZM178.688 45.4722V44.3093H177.525V45.4722H178.688ZM178.688 63.2857H177.525V64.4487H178.688V63.2857ZM197.91 94.0215H188.631V96.3473H197.91V94.0215ZM189.734 94.8166C189.487 94.0756 189.31 93.5604 189.181 92.6673C189.048 91.7458 188.965 90.4031 188.965 88.059H186.639C186.639 90.4375 186.722 91.9118 186.879 92.9995C187.04 94.1156 187.277 94.8018 187.527 95.5521L189.734 94.8166ZM188.965 88.059V78.9451H186.639V88.059H188.965ZM188.965 78.9451C188.965 76.1728 188.507 73.9851 187.267 72.4948C185.98 70.948 184.077 70.4082 181.837 70.4082V72.734C183.739 72.734 184.818 73.1884 185.479 73.9822C186.186 74.8326 186.639 76.3319 186.639 78.9451H188.965ZM181.837 70.4082H178.688V72.734H181.837V70.4082ZM177.525 71.5711V95.1844H179.851V71.5711H177.525ZM178.688 94.0215H169.574V96.3473H178.688V94.0215ZM170.737 95.1844V37.1868H168.411V95.1844H170.737ZM169.574 38.3498H183.328V36.0239H169.574V38.3498ZM183.328 38.3498C187.893 38.3498 190.907 39.4125 192.796 41.3194C194.687 43.2282 195.67 46.2036 195.67 50.5263H197.996C197.996 45.9008 196.949 42.2064 194.449 39.6826C191.947 37.1568 188.208 36.0239 183.328 36.0239V38.3498ZM195.67 50.5263V55.0832H197.996V50.5263H195.67ZM195.67 55.0832C195.67 60.7961 193.872 64.1536 190.374 65.7957L191.362 67.9012C195.983 65.732 197.996 61.3013 197.996 55.0832H195.67ZM190.419 67.9213C194.297 69.5432 195.753 73.2724 195.753 79.1936H198.079C198.079 73.0183 196.552 67.965 191.316 65.7756L190.419 67.9213ZM195.753 79.1936V88.1418H198.079V79.1936H195.753ZM195.753 88.1418C195.753 90.9576 195.827 93.2443 196.839 95.6375L198.981 94.7313C198.171 92.8161 198.079 90.9601 198.079 88.1418H195.753ZM183.079 44.3093H178.688V46.6351H183.079V44.3093ZM177.525 45.4722V63.2857H179.851V45.4722H177.525ZM178.688 64.4487H182.251V62.1228H178.688V64.4487ZM182.251 64.4487C184.094 64.4487 185.831 64.0467 187.086 62.7779C188.336 61.5143 188.882 59.6187 188.882 57.1546H186.556C186.556 59.3303 186.067 60.5002 185.432 61.1423C184.802 61.7791 183.805 62.1228 182.251 62.1228V64.4487ZM188.882 57.1546V51.4377H186.556V57.1546H188.882ZM188.882 51.4377C188.882 49.2798 188.524 47.4691 187.53 46.1881C186.482 44.8387 184.919 44.3093 183.079 44.3093V46.6351C184.472 46.6351 185.229 47.0172 185.693 47.6147C186.21 48.2808 186.556 49.4529 186.556 51.4377H188.882ZM211.195 95.1844H210.032V96.3473H211.195V95.1844ZM211.195 37.1868V36.0239H210.032V37.1868H211.195ZM220.309 37.1868H221.472V36.0239H220.309V37.1868ZM220.309 95.1844V96.3473H221.472V95.1844H220.309ZM212.358 95.1844V37.1868H210.032V95.1844H212.358ZM211.195 38.3498H220.309V36.0239H211.195V38.3498ZM219.146 37.1868V95.1844H221.472V37.1868H219.146ZM220.309 94.0215H211.195V96.3473H220.309V94.0215ZM244.372 45.4722V44.3093H243.209V45.4722H244.372ZM244.372 61.6287H243.209V62.7916H244.372V61.6287ZM256.883 61.6287H258.046V60.4657H256.883V61.6287ZM256.883 69.914V71.077H258.046V69.914H256.883ZM244.372 69.914V68.7511H243.209V69.914H244.372ZM244.372 86.899H243.209V88.062H244.372V86.899ZM260.115 86.899H261.277V85.7361H260.115V86.899ZM260.115 95.1844V96.3473H261.277V95.1844H260.115ZM235.258 95.1844H234.096V96.3473H235.258V95.1844ZM235.258 37.1868V36.0239H234.096V37.1868H235.258ZM260.115 37.1868H261.277V36.0239H260.115V37.1868ZM260.115 45.4722V46.6351H261.277V45.4722H260.115ZM243.209 45.4722V61.6287H245.535V45.4722H243.209ZM244.372 62.7916H256.883V60.4657H244.372V62.7916ZM255.72 61.6287V69.914H258.046V61.6287H255.72ZM256.883 68.7511H244.372V71.077H256.883V68.7511ZM243.209 69.914V86.899H245.535V69.914H243.209ZM244.372 88.062H260.115V85.7361H244.372V88.062ZM258.952 86.899V95.1844H261.277V86.899H258.952ZM260.115 94.0215H235.258V96.3473H260.115V94.0215ZM236.421 95.1844V37.1868H234.096V95.1844H236.421ZM235.258 38.3498H260.115V36.0239H235.258V38.3498ZM258.952 37.1868V45.4722H261.277V37.1868H258.952ZM260.115 44.3093H244.372V46.6351H260.115V44.3093ZM293.518 95.1844L292.395 95.4877L292.628 96.3473H293.518V95.1844ZM282.167 53.1776L283.29 52.8742L281.004 53.1776H282.167ZM282.167 95.1844V96.3473H283.33V95.1844H282.167ZM273.965 95.1844H272.802V96.3473H273.965V95.1844ZM273.965 37.1868V36.0239H272.802V37.1868H273.965ZM285.398 37.1868L286.521 36.884L286.289 36.0239H285.398V37.1868ZM294.761 71.9025L293.638 72.2053L295.924 71.9025H294.761ZM294.761 37.1868V36.0239H293.598V37.1868H294.761ZM302.881 37.1868H304.044V36.0239H302.881V37.1868ZM302.881 95.1844V96.3473H304.044V95.1844H302.881ZM294.641 94.881L283.29 52.8742L281.045 53.481L292.395 95.4877L294.641 94.881ZM281.004 53.1776V95.1844H283.33V53.1776H281.004ZM282.167 94.0215H273.965V96.3473H282.167V94.0215ZM275.128 95.1844V37.1868H272.802V95.1844H275.128ZM273.965 38.3498H285.398V36.0239H273.965V38.3498ZM284.276 37.4897L293.638 72.2053L295.884 71.5997L286.521 36.884L284.276 37.4897ZM295.924 71.9025V37.1868H293.598V71.9025H295.924ZM294.761 38.3498H302.881V36.0239H294.761V38.3498ZM301.718 37.1868V95.1844H304.044V37.1868H301.718ZM302.881 94.0215H293.518V96.3473H302.881V94.0215ZM335.505 73.5596V72.3967H334.342V73.5596H335.505ZM344.122 73.5596H345.285V72.3967H344.122V73.5596ZM344.122 56.7403V57.9032H345.285V56.7403H344.122ZM335.505 56.7403H334.342V57.9032H335.505V56.7403ZM335.505 74.7225H344.122V72.3967H335.505V74.7225ZM342.959 73.5596V81.265H345.285V73.5596H342.959ZM342.959 81.265C342.959 85.7255 341.844 89.0491 339.826 91.2501C337.824 93.4344 334.775 94.6843 330.534 94.6843V97.0101C335.241 97.0101 338.986 95.6087 341.54 92.8218C344.08 90.0515 345.285 86.084 345.285 81.265H342.959ZM330.534 94.6843C326.292 94.6843 323.244 93.4344 321.241 91.2501C319.224 89.0491 318.109 85.7255 318.109 81.265H315.783C315.783 86.084 316.987 90.0515 319.527 92.8218C322.082 95.6087 325.827 97.0101 330.534 97.0101V94.6843ZM318.109 81.265V51.1063H315.783V81.265H318.109ZM318.109 51.1063C318.109 46.6457 319.224 43.3221 321.241 41.1211C323.244 38.9368 326.292 37.6869 330.534 37.6869V35.3611C325.827 35.3611 322.082 36.7625 319.527 39.5495C316.987 42.3197 315.783 46.2872 315.783 51.1063H318.109ZM330.534 37.6869C334.775 37.6869 337.824 38.9368 339.826 41.1211C341.844 43.3221 342.959 46.6457 342.959 51.1063H345.285C345.285 46.2872 344.08 42.3197 341.54 39.5495C338.986 36.7625 335.241 35.3611 330.534 35.3611V37.6869ZM342.959 51.1063V56.7403H345.285V51.1063H342.959ZM344.122 55.5774H335.505V57.9032H344.122V55.5774ZM336.668 56.7403V50.5263H334.342V56.7403H336.668ZM336.668 50.5263C336.668 48.3105 336.184 46.5486 335.096 45.3375C333.986 44.1011 332.438 43.6465 330.782 43.6465V45.9723C332.026 45.9723 332.839 46.3048 333.366 46.8912C333.915 47.5028 334.342 48.5994 334.342 50.5263H336.668ZM330.782 43.6465C329.126 43.6465 327.578 44.1011 326.468 45.3375C325.381 46.5486 324.897 48.3105 324.897 50.5263H327.222C327.222 48.5994 327.65 47.5028 328.199 46.8912C328.725 46.3048 329.538 45.9723 330.782 45.9723V43.6465ZM324.897 50.5263V81.845H327.222V50.5263H324.897ZM324.897 81.845C324.897 84.0596 325.38 85.8084 326.477 87.0022C327.593 88.2172 329.143 88.6419 330.782 88.6419V86.3161C329.522 86.3161 328.71 85.9951 328.19 85.4288C327.65 84.8412 327.222 83.773 327.222 81.845H324.897ZM330.782 88.6419C332.422 88.6419 333.971 88.2172 335.087 87.0022C336.184 85.8084 336.668 84.0596 336.668 81.845H334.342C334.342 83.773 333.914 84.8412 333.375 85.4288C332.854 85.9951 332.043 86.3161 330.782 86.3161V88.6419ZM336.668 81.845V73.5596H334.342V81.845H336.668ZM367.051 45.4722V44.3093H365.888V45.4722H367.051ZM367.051 61.6287H365.888V62.7916H367.051V61.6287ZM379.562 61.6287H380.725V60.4657H379.562V61.6287ZM379.562 69.914V71.077H380.725V69.914H379.562ZM367.051 69.914V68.7511H365.888V69.914H367.051ZM367.051 86.899H365.888V88.062H367.051V86.899ZM382.793 86.899H383.956V85.7361H382.793V86.899ZM382.793 95.1844V96.3473H383.956V95.1844H382.793ZM357.937 95.1844H356.774V96.3473H357.937V95.1844ZM357.937 37.1868V36.0239H356.774V37.1868H357.937ZM382.793 37.1868H383.956V36.0239H382.793V37.1868ZM382.793 45.4722V46.6351H383.956V45.4722H382.793ZM365.888 45.4722V61.6287H368.214V45.4722H365.888ZM367.051 62.7916H379.562V60.4657H367.051V62.7916ZM378.399 61.6287V69.914H380.725V61.6287H378.399ZM379.562 68.7511H367.051V71.077H379.562V68.7511ZM365.888 69.914V86.899H368.214V69.914H365.888ZM367.051 88.062H382.793V85.7361H367.051V88.062ZM381.63 86.899V95.1844H383.956V86.899H381.63ZM382.793 94.0215H357.937V96.3473H382.793V94.0215ZM359.1 95.1844V37.1868H356.774V95.1844H359.1ZM357.937 38.3498H382.793V36.0239H357.937V38.3498ZM381.63 37.1868V45.4722H383.956V37.1868H381.63ZM382.793 44.3093H367.051V46.6351H382.793V44.3093Z" fill="white" mask="url(#path-5-outside-3_0_1013)"/>
</svg>
