<svg width="17" height="15" viewBox="0 0 17 15" fill="none" xmlns="http://www.w3.org/2000/svg">
<path d="M5.23772 4.28113C5.23772 2.84353 5.68338 1.51063 6.44274 0.414062C3.05013 0.765859 0.404297 3.6486 0.404297 7.1531C0.404297 10.895 3.42084 13.9285 7.14187 13.9285C9.43332 13.9285 11.4571 12.7778 12.6744 11.0202C12.4445 11.0441 12.2114 11.0562 11.9753 11.0562C8.25428 11.0562 5.23772 8.02277 5.23772 4.28086V4.28113Z" fill="black"/>
<path d="M13.826 2.58594L13.9122 2.91539C14.1737 3.91507 14.9237 4.71152 15.902 5.02859C14.9237 5.3454 14.1734 6.14212 13.9122 7.14179L13.826 7.47125L13.7398 7.14179C13.4783 6.14212 12.7283 5.34567 11.75 5.02859C12.7283 4.71179 13.4786 3.91507 13.7398 2.91539L13.826 2.58594Z" fill="black"/>
<path d="M10.1637 0.40625L10.2073 0.572593C10.3393 1.07754 10.7183 1.47967 11.2124 1.63983C10.7183 1.79998 10.3393 2.20211 10.2073 2.70706L10.1637 2.8734L10.1201 2.70706C9.9881 2.20211 9.60909 1.79998 9.11499 1.63983C9.60909 1.47967 9.9881 1.07754 10.1201 0.572593L10.1637 0.40625Z" fill="black"/>
<path d="M12.6746 10.612C12.6607 10.612 12.6465 10.6128 12.6326 10.6141C12.4149 10.6367 12.1936 10.648 11.9752 10.648C8.48327 10.648 5.64231 7.79114 5.64231 4.27963C5.64231 2.97177 6.0339 1.71505 6.77478 0.645122C6.86499 0.515116 6.87141 0.342583 6.79138 0.206117C6.71884 0.0825709 6.58554 0.00585938 6.44315 0.00585938C6.42923 0.00585938 6.41532 0.0066665 6.4014 0.00801232C4.65357 0.189159 3.03769 1.01253 1.85195 2.32658C0.657643 3.64979 0 5.36355 0 7.15187C0 11.1121 3.20391 14.334 7.14201 14.334C9.47763 14.334 11.6698 13.1817 13.0065 11.2512C13.0967 11.1212 13.1031 10.9487 13.0231 10.812C12.9505 10.6884 12.8172 10.6117 12.6748 10.6117L12.6746 10.612ZM4.83317 4.27963C4.83317 8.18277 7.94553 11.3689 11.8052 11.4598C10.6056 12.7725 8.92089 13.5203 7.14201 13.5203C3.6501 13.5203 0.80914 10.6634 0.80914 7.15187C0.80914 4.2075 2.8249 1.64614 5.6391 0.963004C5.111 1.98125 4.83317 3.12196 4.83317 4.2799V4.27963Z" fill="black"/>
<path d="M16.0246 4.64172C15.1734 4.3661 14.5295 3.68216 14.3019 2.81249L14.2158 2.48303C14.1692 2.30431 14.0081 2.17969 13.8244 2.17969C13.6408 2.17969 13.48 2.30458 13.4331 2.48303L13.3469 2.81249C13.1194 3.68216 12.4754 4.3661 11.6243 4.64172C11.4564 4.69609 11.3438 4.85167 11.3438 5.02905C11.3438 5.20643 11.4564 5.362 11.6243 5.41637C12.4754 5.69227 13.1194 6.37594 13.3469 7.24561L13.4331 7.57506C13.48 7.75379 13.6408 7.87841 13.8244 7.87841C14.0081 7.87841 14.1689 7.75352 14.2158 7.57506L14.3019 7.24561C14.5295 6.37594 15.1734 5.692 16.0246 5.41637C16.1924 5.362 16.3051 5.20643 16.3051 5.02905C16.3051 4.85167 16.1924 4.69609 16.0246 4.64172ZM14.9631 5.02905C14.4845 5.33966 14.0961 5.76117 13.8244 6.26397C13.5528 5.7609 13.1644 5.33966 12.6858 5.02905C13.1644 4.71843 13.5528 4.29719 13.8244 3.79413C14.0961 4.29719 14.4845 4.71843 14.9631 5.02905Z" fill="black"/>
<path d="M8.9934 2.02787C9.35795 2.14604 9.63392 2.43889 9.73134 2.81141L9.77498 2.97775C9.82155 3.15648 9.98268 3.2811 10.1663 3.2811C10.3499 3.2811 10.511 3.15621 10.5576 2.97775L10.6012 2.81141C10.6987 2.43889 10.9744 2.14604 11.3389 2.02787C11.5067 1.9735 11.6194 1.81793 11.6194 1.64055C11.6194 1.46317 11.5067 1.30759 11.3389 1.25322C10.9744 1.13506 10.6987 0.842212 10.6012 0.46969L10.5576 0.303347C10.511 0.124622 10.3499 0 10.1663 0C9.98268 0 9.82155 0.124891 9.77498 0.303347L9.73134 0.46969C9.63392 0.842212 9.35795 1.13506 8.9934 1.25322C8.82558 1.30759 8.71289 1.46317 8.71289 1.64055C8.71289 1.81793 8.82558 1.9735 8.9934 2.02787ZM9.92246 1.64055C10.0116 1.56195 10.093 1.47582 10.166 1.38215C10.2391 1.47582 10.3205 1.56222 10.4096 1.64055C10.3205 1.71915 10.2391 1.80555 10.166 1.89895C10.093 1.80528 10.0116 1.71888 9.92246 1.64055Z" fill="black"/>
</svg>
