<svg width="20" height="20" viewBox="0 0 20 20" fill="none" xmlns="http://www.w3.org/2000/svg">
<path d="M20.0012 19.9992V12.6742C20.0012 9.07422 19.2262 6.32422 15.0262 6.32422C13.0012 6.32422 11.6512 7.42422 11.1012 8.47422H11.0512V6.64922H7.07617V19.9992H11.2262V13.3742C11.2262 11.6242 11.5512 9.94922 13.7012 9.94922C15.8262 9.94922 15.8512 11.9242 15.8512 13.4742V19.9742H20.0012V19.9992Z" fill="white"/>
<path d="M0.324219 6.65039H4.47422V20.0004H0.324219V6.65039Z" fill="white"/>
<path d="M2.4 0C1.075 0 0 1.075 0 2.4C0 3.725 1.075 4.825 2.4 4.825C3.725 4.825 4.8 3.725 4.8 2.4C4.8 1.075 3.725 0 2.4 0Z" fill="white"/>
</svg>
