<svg width="23" height="23" viewBox="0 0 23 23" fill="none" xmlns="http://www.w3.org/2000/svg">
<path d="M11.5 0C5.14625 0 0 5.06 0 11.3007C0 16.2945 3.29475 20.5294 7.86312 22.0225C8.43812 22.1289 8.64896 21.7791 8.64896 21.4791C8.64896 21.2108 8.63937 20.4997 8.63458 19.5577C5.43567 20.239 4.761 18.0416 4.761 18.0416C4.23775 16.7373 3.48162 16.3885 3.48162 16.3885C2.43992 15.6879 3.56212 15.7023 3.56212 15.7023C4.71692 15.7809 5.32354 16.8667 5.32354 16.8667C6.34896 18.5945 8.0155 18.0953 8.67292 17.8068C8.77642 17.0756 9.07254 16.5782 9.40125 16.2955C6.84729 16.0128 4.163 15.041 4.163 10.7113C4.163 9.47792 4.60862 8.46975 5.34654 7.67913C5.21717 7.39354 4.82904 6.2445 5.44717 4.68817C5.44717 4.68817 6.41029 4.38533 8.60967 5.84679C9.52967 5.59571 10.5072 5.47113 11.4847 5.46538C12.4622 5.47113 13.4397 5.59571 14.3597 5.84679C16.5447 4.38533 17.5078 4.68817 17.5078 4.68817C18.1259 6.2445 17.7378 7.39354 17.6228 7.67913C18.3559 8.46975 18.8015 9.47792 18.8015 10.7113C18.8015 15.0525 16.1134 16.008 13.5547 16.2859C13.9572 16.6252 14.3309 17.318 14.3309 18.377C14.3309 19.8893 14.3165 21.1044 14.3165 21.4715C14.3165 21.7676 14.5178 22.1212 15.1072 22.0081C19.7081 20.5246 23 16.2869 23 11.3007C23 5.06 17.8509 0 11.5 0Z" fill="white"/>
</svg>
