<svg width="24" height="155" viewBox="0 0 24 155" fill="none" xmlns="http://www.w3.org/2000/svg">
<rect x="16.6189" y="4.8584" width="2.89322" height="16.636" transform="rotate(45 16.6189 4.8584)" fill="white"/>
<rect x="16.6189" y="4.8584" width="2.89322" height="16.636" transform="rotate(45 16.6189 4.8584)" fill="white"/>
<rect x="18.6658" y="16.6221" width="2.89322" height="16.636" transform="rotate(135 18.6658 16.6221)" fill="white"/>
<rect x="18.6658" y="16.6221" width="2.89322" height="16.636" transform="rotate(135 18.6658 16.6221)" fill="white"/>
<rect x="16.6189" y="48.3857" width="2.89322" height="16.636" transform="rotate(45 16.6189 48.3857)" fill="white"/>
<rect x="16.6189" y="48.3857" width="2.89322" height="16.636" transform="rotate(45 16.6189 48.3857)" fill="white"/>
<rect x="18.6658" y="60.1494" width="2.89322" height="16.636" transform="rotate(135 18.6658 60.1494)" fill="white"/>
<rect x="18.6658" y="60.1494" width="2.89322" height="16.636" transform="rotate(135 18.6658 60.1494)" fill="white"/>
<rect x="16.6208" y="91.9121" width="2.89322" height="16.636" transform="rotate(45 16.6208 91.9121)" fill="white"/>
<rect x="16.6208" y="91.9121" width="2.89322" height="16.636" transform="rotate(45 16.6208 91.9121)" fill="white"/>
<rect x="18.6677" y="103.676" width="2.89322" height="16.636" transform="rotate(135 18.6677 103.676)" fill="white"/>
<rect x="18.6677" y="103.676" width="2.89322" height="16.636" transform="rotate(135 18.6677 103.676)" fill="white"/>
<rect x="16.6208" y="135.438" width="2.89322" height="16.636" transform="rotate(45 16.6208 135.438)" fill="white"/>
<rect x="16.6208" y="135.438" width="2.89322" height="16.636" transform="rotate(45 16.6208 135.438)" fill="white"/>
<rect x="18.6677" y="147.202" width="2.89322" height="16.636" transform="rotate(135 18.6677 147.202)" fill="white"/>
<rect x="18.6677" y="147.202" width="2.89322" height="16.636" transform="rotate(135 18.6677 147.202)" fill="white"/>
</svg>
