<svg width="117" height="24" viewBox="0 0 117 24" fill="none" xmlns="http://www.w3.org/2000/svg">
<rect x="111.977" y="16.6218" width="2.89322" height="16.636" transform="rotate(135 111.977 16.6218)" fill="white"/>
<rect x="111.977" y="16.6218" width="2.89322" height="16.636" transform="rotate(135 111.977 16.6218)" fill="white"/>
<rect x="100.213" y="18.6687" width="2.89322" height="16.636" transform="rotate(-135 100.213 18.6687)" fill="white"/>
<rect x="100.213" y="18.6687" width="2.89322" height="16.636" transform="rotate(-135 100.213 18.6687)" fill="white"/>
<rect x="80.875" y="16.6218" width="2.89322" height="16.636" transform="rotate(135 80.875 16.6218)" fill="white"/>
<rect x="80.875" y="16.6218" width="2.89322" height="16.636" transform="rotate(135 80.875 16.6218)" fill="white"/>
<rect x="69.1113" y="18.6687" width="2.89322" height="16.636" transform="rotate(-135 69.1113 18.6687)" fill="white"/>
<rect x="69.1113" y="18.6687" width="2.89322" height="16.636" transform="rotate(-135 69.1113 18.6687)" fill="white"/>
<rect x="49.7734" y="16.6218" width="2.89322" height="16.636" transform="rotate(135 49.7734 16.6218)" fill="white"/>
<rect x="49.7734" y="16.6218" width="2.89322" height="16.636" transform="rotate(135 49.7734 16.6218)" fill="white"/>
<rect x="38.0098" y="18.6687" width="2.89322" height="16.636" transform="rotate(-135 38.0098 18.6687)" fill="white"/>
<rect x="38.0098" y="18.6687" width="2.89322" height="16.636" transform="rotate(-135 38.0098 18.6687)" fill="white"/>
<rect x="18.6699" y="16.6218" width="2.89322" height="16.636" transform="rotate(135 18.6699 16.6218)" fill="white"/>
<rect x="18.6699" y="16.6218" width="2.89322" height="16.636" transform="rotate(135 18.6699 16.6218)" fill="white"/>
<rect x="6.90625" y="18.6687" width="2.89322" height="16.636" transform="rotate(-135 6.90625 18.6687)" fill="white"/>
<rect x="6.90625" y="18.6687" width="2.89322" height="16.636" transform="rotate(-135 6.90625 18.6687)" fill="white"/>
</svg>
